<?xml version="1.0" encoding="UTF-8" standalone="no"?>
<!-- Created with Inkscape (http://www.inkscape.org/) -->

<svg
   xmlns:dc="http://purl.org/dc/elements/1.1/"
   xmlns:cc="http://creativecommons.org/ns#"
   xmlns:rdf="http://www.w3.org/1999/02/22-rdf-syntax-ns#"
   xmlns:svg="http://www.w3.org/2000/svg"
   xmlns="http://www.w3.org/2000/svg"
   xmlns:sodipodi="http://sodipodi.sourceforge.net/DTD/sodipodi-0.dtd"
   xmlns:inkscape="http://www.inkscape.org/namespaces/inkscape"
   version="1.1"
   id="svg815"
   xml:space="preserve"
   width="180.52533"
   height="180.52533"
   viewBox="0 0 180.52533 180.52533"
   sodipodi:docname="Seal_of_Western_New_England_University.svg"
   inkscape:version="0.92.2 (5c3e80d, 2017-08-06)"><metadata
     id="metadata821"><rdf:RDF><cc:Work
         rdf:about=""><dc:format>image/svg+xml</dc:format><dc:type
           rdf:resource="http://purl.org/dc/dcmitype/StillImage" /><dc:title></dc:title></cc:Work></rdf:RDF></metadata><defs
     id="defs819"><clipPath
       clipPathUnits="userSpaceOnUse"
       id="clipPath833"><path
         d="m -9,620.261 h 809 v -93 H -9"
         id="path831"
         inkscape:connector-curvature="0" /></clipPath><clipPath
       clipPathUnits="userSpaceOnUse"
       id="clipPath851"><path
         d="m -8.557,577.813 h 289.024 v -51.55 H -8.557"
         id="path849"
         inkscape:connector-curvature="0" /></clipPath><clipPath
       clipPathUnits="userSpaceOnUse"
       id="clipPath859"><path
         d="M 20.237,575.3538 V 334.122 h 257.4517 v 241.2318"
         id="path857"
         inkscape:connector-curvature="0" /></clipPath><clipPath
       clipPathUnits="userSpaceOnUse"
       id="clipPath979"><path
         d="m 31.257,78.381 h 172.6 v 164.065 h -172.6 z"
         id="path977"
         inkscape:connector-curvature="0" /></clipPath><clipPath
       clipPathUnits="userSpaceOnUse"
       id="clipPath987"><path
         d="M 53.332,93.012 H 188.726 V 228.4066 H 53.332 Z"
         id="path985"
         inkscape:connector-curvature="0" /></clipPath><clipPath
       clipPathUnits="userSpaceOnUse"
       id="clipPath1349"><path
         d="M 225.326,72.042 H 391.188 V 238.456 H 225.326 Z"
         id="path1347"
         inkscape:connector-curvature="0" /></clipPath><clipPath
       clipPathUnits="userSpaceOnUse"
       id="clipPath1357"><path
         d="M 241.986,92.361 H 377.4906 V 227.8656 H 241.986 Z"
         id="path1355"
         inkscape:connector-curvature="0" /></clipPath><clipPath
       clipPathUnits="userSpaceOnUse"
       id="clipPath1725"><path
         d="m 31.472,291.559 h 172.6 v 164.065 h -172.6 z"
         id="path1723"
         inkscape:connector-curvature="0" /></clipPath><clipPath
       clipPathUnits="userSpaceOnUse"
       id="clipPath1733"><path
         d="M 53.547,306.19 H 188.941 V 441.584 H 53.547 Z"
         id="path1731"
         inkscape:connector-curvature="0" /></clipPath><clipPath
       clipPathUnits="userSpaceOnUse"
       id="clipPath2099"><path
         d="M 219.758,291.559 V 455.624 H 392.3571 V 291.559"
         id="path2097"
         inkscape:connector-curvature="0" /></clipPath></defs><sodipodi:namedview
     pagecolor="#ffffff"
     bordercolor="#666666"
     borderopacity="1"
     objecttolerance="10"
     gridtolerance="10"
     guidetolerance="10"
     inkscape:pageopacity="0"
     inkscape:pageshadow="2"
     inkscape:window-width="1065"
     inkscape:window-height="568"
     id="namedview817"
     showgrid="false"
     fit-margin-top="0"
     fit-margin-left="0"
     fit-margin-right="0"
     fit-margin-bottom="0"
     inkscape:zoom="0.44833354"
     inkscape:cx="82.612176"
     inkscape:cy="112.51505"
     inkscape:window-x="2632"
     inkscape:window-y="340"
     inkscape:window-maximized="0"
     inkscape:current-layer="g823" /><g
     id="g823"
     inkscape:groupmode="layer"
     inkscape:label="wne-graphic-standards-9.17"
     transform="matrix(1.3333333,0,0,-1.3333333,-445.38782,476.01028)"><g
       id="g2093"
       transform="translate(89.295376,-85.665483)"><g
         id="g2095"
         clip-path="url(#clipPath2099)"><path
           d="m 312.4431,442.6732 c -37.3889,0 -67.6976,-30.3099 -67.6976,-67.6976 0,-37.3871 30.3087,-67.6964 67.6976,-67.6964 37.3877,0 67.6964,30.3093 67.6964,67.6964 0,37.3877 -30.3087,67.6976 -67.6964,67.6976"
           style="fill:#fab217;fill-opacity:1;fill-rule:nonzero;stroke:none"
           id="path2101"
           inkscape:connector-curvature="0" /><path
           d="m 312.4431,440.9406 c -36.4311,0 -65.965,-29.5345 -65.965,-65.965 0,-36.4299 29.5339,-65.9632 65.965,-65.9632 36.4305,0 65.9644,29.5333 65.9644,65.9632 0,36.4305 -29.5339,65.965 -65.9644,65.965"
           style="fill:#ffffff;fill-opacity:1;fill-rule:nonzero;stroke:none"
           id="path2103"
           inkscape:connector-curvature="0" /><path
           d="m 312.4431,311.9359 c 34.8155,0 63.0403,28.2236 63.0403,63.0397 0,34.8161 -28.2248,63.0409 -63.0403,63.0409 -34.8167,0 -63.0409,-28.2248 -63.0409,-63.0409 0,-34.8161 28.2242,-63.0397 63.0409,-63.0397"
           style="fill:#2057af;fill-opacity:1;fill-rule:nonzero;stroke:none"
           id="path2105"
           inkscape:connector-curvature="0" /><path
           d="m 312.4431,419.0971 c -24.3674,0 -44.1215,-19.7535 -44.1215,-44.1215 0,-24.3649 19.7541,-44.1203 44.1215,-44.1203 24.3662,0 44.1209,19.7554 44.1209,44.1203 0,24.368 -19.7547,44.1215 -44.1209,44.1215"
           style="fill:#ffffff;fill-opacity:1;fill-rule:nonzero;stroke:none"
           id="path2107"
           inkscape:connector-curvature="0" /><path
           d="m 272.6693,396.9213 39.854,-66.4595 39.3975,66.413"
           style="fill:#2057af;fill-opacity:1;fill-rule:nonzero;stroke:none"
           id="path2109"
           inkscape:connector-curvature="0" /><path
           d="m 313.751,382.5876 c -0.3568,2.2002 -3.0331,3.7461 -3.0331,3.7461 0,0 1.3084,-1.4271 1.1891,-2.7356 -0.1181,-1.3079 -3.6267,-4.6971 -3.7461,-6.4217 -0.0654,-0.9548 0.1072,-1.7069 0.4535,-2.2008 h 2.6372 c -0.1133,0.3696 -0.2094,1.0643 10e-4,2.2607 0.3568,2.0215 2.855,3.1506 2.4982,5.3513 m -8.4444,-5.2331 c 0.0594,1.6652 4.1628,5.1144 4.8764,6.3629 0.713,1.2491 -0.5355,2.3189 -0.5355,2.3189 0.1781,-1.7834 -1.0704,-1.9615 -2.4976,-2.8544 -1.4272,-0.8917 -4.6383,-1.9614 -4.8158,-5.5294 -0.0685,-1.3727 0.5496,-2.1891 1.3354,-2.6769 h 2.2246 c -0.4192,0.5527 -0.6279,1.2454 -0.5875,2.3789 m 1.3085,-3.0925 h -0.2185 c 0.1376,-0.002 0.2185,0 0.2185,0 m 15.4009,5.8874 c -0.178,4.6972 -7.3721,7.314 -12.3685,7.136 0,-10e-5 4.4003,-0.3574 4.9964,-3.2106 0.5936,-2.8543 0.0581,-3.5098 -0.6555,-5.0551 -0.6383,-1.3843 0.5319,-3.3819 1.2968,-4.0441 h 4.3232 c 0.9957,0.5753 2.5294,1.981 2.4076,5.1738 m -14.6274,-3.4486 c 0.1781,2.3189 2.3189,4.1622 3.0325,5.2914 0.7129,1.131 0.4749,1.9033 0.4749,1.9033 -0.1187,-1.0116 -4.7565,-5.232 -4.6971,-6.8373 0.0324,-0.888 0.4847,-1.6114 0.8812,-2.0826 h 0.4468 c -0.0961,0.4388 -0.1891,1.0704 -0.1383,1.7252 m 6.2436,3.3299 c 0,0 -0.238,0 -1.3084,-1.9626 -0.8923,-1.6353 -0.052,-2.7602 0.2533,-3.0925 h 1.6475 c 0.0925,0.2442 -0.1254,0.6897 -0.7123,1.5472 -0.773,1.1297 0.1199,3.5079 0.1199,3.5079"
           style="fill:#e91638;fill-opacity:1;fill-rule:nonzero;stroke:none"
           id="path2111"
           inkscape:connector-curvature="0" /><path
           d="m 312.4431,420.547 c -25.1287,0 -45.5713,-20.4433 -45.5713,-45.5714 0,-25.1269 20.4426,-45.5701 45.5713,-45.5701 25.1275,0 45.5695,20.4432 45.5695,45.5701 0,25.1281 -20.442,45.5714 -45.5695,45.5714 m 0,-93.1134 c -26.215,0 -47.5432,21.3276 -47.5432,47.542 0,26.2156 21.3282,47.5426 47.5432,47.5426 26.2138,0 47.542,-21.327 47.542,-47.5426 0,-26.2144 -21.3282,-47.542 -47.542,-47.542"
           style="fill:#fab217;fill-opacity:1;fill-rule:nonzero;stroke:none"
           id="path2113"
           inkscape:connector-curvature="0" /><path
           d="m 305.1291,364.5576 h 13.9144 v 2.1407 h -13.9144 z"
           style="fill:#fab217;fill-opacity:1;fill-rule:nonzero;stroke:none"
           id="path2115"
           inkscape:connector-curvature="0" /><path
           d="m 307.5373,358.8127 2.4976,-4.407 v 9.5588 l -2.4976,0.0361"
           style="fill:#fab217;fill-opacity:1;fill-rule:nonzero;stroke:none"
           id="path2117"
           inkscape:connector-curvature="0" /><path
           d="m 314.8513,363.9847 v -9.579 l 2.497,4.407 v 5.1897"
           style="fill:#fab217;fill-opacity:1;fill-rule:nonzero;stroke:none"
           id="path2119"
           inkscape:connector-curvature="0" /><path
           d="m 311.0159,352.9399 1.3501,-2.7191 1.5043,2.7252 v 11.0589 h -2.8544"
           style="fill:#fab217;fill-opacity:1;fill-rule:nonzero;stroke:none"
           id="path2121"
           inkscape:connector-curvature="0" /><path
           d="m 304.4149,371.3489 c 0,0 2.3189,-1.7846 2.2601,-4.1035 h 2.9254 l -1.4364,4.1035 z m 11.9126,0 -1.4352,-4.1035 h 2.9615 c 0,0 0.1781,3.6861 1.8433,4.1035 z m -7.5203,0 1.4352,-4.1035 h 4.0067 l 1.4358,4.1035"
           style="fill:#fab217;fill-opacity:1;fill-rule:nonzero;stroke:none"
           id="path2123"
           inkscape:connector-curvature="0" /><path
           d="m 302.8096,371.9431 h 18.5528 v 2.1408 h -18.5528 z"
           style="fill:#fab217;fill-opacity:1;fill-rule:nonzero;stroke:none"
           id="path2125"
           inkscape:connector-curvature="0" /><path
           d="m 260.0112,350.0752 0.2191,-0.3489 c 0.1255,-0.1989 0.2014,-0.1995 0.5576,-0.1377 l 7.8005,1.3446 c 0.1383,0.022 0.284,0.0324 0.3421,-0.0606 0.0655,-0.1053 -0.0208,-0.2081 -0.1407,-0.38 l -3.3287,-4.8673 5.6292,1.0361 c 0.276,0.0429 0.4204,0.1028 0.4939,-0.0135 0.0667,-0.1058 0.0122,-0.1884 -0.1181,-0.3665 l -3.937,-5.6873 c -0.8097,-1.1739 -0.776,-1.2503 -0.6157,-1.5062 l 0.2338,-0.3733 -0.3593,-0.2258 -1.7919,2.8525 0.3598,0.2258 0.3801,-0.6065 c 0.0587,-0.093 0.0991,-0.1322 0.164,-0.0918 0.0765,0.0478 0.4627,0.6647 0.7846,1.1426 l 2.5043,3.7645 -4.1292,-0.7436 c -0.9608,-1.4646 -0.94,-1.4988 -0.7491,-1.8017 l 0.2197,-0.3489 -0.3592,-0.2258 -1.8788,2.992 0.3586,0.2259 0.4315,-0.6873 c 0.0581,-0.0936 0.0985,-0.1328 0.1536,-0.0991 0.0428,0.0275 0.9859,1.4485 1.0948,1.6132 l 2.2871,3.336 -2.3856,-0.3788 c -1.6848,-0.2626 -3.0288,-0.5869 -3.2675,-0.7375 -0.1419,-0.0893 -0.134,-0.1493 0.0337,-0.4168 l 0.366,-0.5826 -0.3593,-0.2246 -1.3531,2.153"
           style="fill:#fab217;fill-opacity:1;fill-rule:nonzero;stroke:none"
           id="path2127"
           inkscape:connector-curvature="0" /><path
           d="m 266.7579,353.5758 -0.2252,0.5759 c -0.0655,0.1664 -0.1469,0.164 -0.2668,0.1175 l -4.9872,-1.9523 c -1.579,-0.6175 -1.5973,-0.7136 -1.437,-1.1236 l 0.2259,-0.5759 -0.3942,-0.1542 -2.4572,6.2717 c 1.191,0.3036 1.2803,0.3238 1.3305,0.1959 0.0649,-0.1658 -0.0201,-0.2295 -0.1836,-0.3078 -0.1976,-0.0925 -0.2191,-0.8826 0.3525,-2.3422 l 0.3611,-0.9216 c 0.0502,-0.128 0.101,-0.153 0.221,-0.1047 l 2.6193,1.0239 -0.4663,1.1909 c -0.5319,1.3568 -0.6959,1.3519 -1.0423,1.2155 l -0.4186,-0.1634 -0.1505,0.3843 2.1052,0.8237 0.1506,-0.3837 -0.4309,-0.1683 c -0.2031,-0.0801 -0.3151,-0.183 0.2167,-1.5398 l 0.4663,-1.1903 0.8734,0.3415 c 2.5477,0.9969 2.563,1.063 2.3929,1.4982 l -0.1757,0.4479 c -0.2711,0.691 -0.9522,2.4328 -1.7656,2.5711 -0.104,0.0196 -0.186,0.0158 -0.2307,0.1316 -0.0355,0.0887 0.004,0.164 0.0887,0.1958 0.1065,0.0422 0.3115,0.0496 1.2662,0.1126 l 2.3569,-6.0147"
           style="fill:#fab217;fill-opacity:1;fill-rule:nonzero;stroke:none"
           id="path2129"
           inkscape:connector-curvature="0" /><path
           d="m 258.5865,359.5349 c -1.5257,-0.3538 -2.6934,1.1524 -3.0416,2.6511 -0.1273,0.549 -0.2106,1.1365 -0.1451,1.702 0.3226,0.0887 0.8109,0.2595 1.0104,0.3048 0.1506,0.0361 0.1971,-0.0527 0.2197,-0.1457 0.0306,-0.134 -0.0636,-0.1842 -0.1701,-0.238 -0.5104,-0.2448 -0.47,-1.2081 -0.3586,-1.691 0.1995,-0.8562 0.8513,-1.6781 1.7527,-1.4694 1.9762,0.459 0.0245,4.6059 3.0521,5.3097 0.4131,0.0955 2.5918,0.1928 3.2883,-2.8054 0.1707,-0.7375 0.2227,-1.5288 0.1468,-2.2803 -0.6817,-0.2993 -0.973,-0.4664 -1.123,-0.5012 -0.0746,-0.0166 -0.2124,-0.049 -0.2589,0.1517 -0.0373,0.1604 0.0814,0.2167 0.1971,0.2858 0.6286,0.4149 0.6659,1.6218 0.5067,2.3048 -0.2392,1.03 -0.9981,1.9682 -2.0612,1.7222 -2.1273,-0.4945 -0.1499,-4.6353 -3.0153,-5.3011"
           style="fill:#fab217;fill-opacity:1;fill-rule:nonzero;stroke:none"
           id="path2131"
           inkscape:connector-curvature="0" /><path
           d="m 262.5657,372.1616 0.4266,-4.2528 -0.4217,-0.0434 -0.1028,1.0275 c -0.0177,0.1763 -0.0973,0.1965 -0.2252,0.1842 l -6.9921,-0.7031 0.0257,-0.2595 c 0.063,-0.6298 0.2387,-2.1176 0.9119,-2.3954 0.1615,-0.0655 0.2564,-0.1126 0.2693,-0.2356 0.009,-0.0955 -0.0331,-0.183 -0.1359,-0.1934 -0.0514,-0.005 -0.3182,0.0789 -1.2956,0.2986 l -0.7081,7.0558 c 0.915,0.4106 1.1598,0.5459 1.2106,0.5508 0.1028,0.0104 0.1621,-0.0661 0.1713,-0.1622 0.0122,-0.1224 -0.0716,-0.1879 -0.2166,-0.284 -0.6047,-0.4069 -0.4811,-1.9002 -0.4181,-2.5294 l 0.0264,-0.26 5.4578,0.5489 c 1.6879,0.1701 1.7301,0.2577 1.6866,0.6953 l -0.0917,0.9161"
           style="fill:#fab217;fill-opacity:1;fill-rule:nonzero;stroke:none"
           id="path2133"
           inkscape:connector-curvature="0" /><path
           d="m 262.0192,373.9487 0.0269,0.6181 c 0.009,0.1781 -0.0673,0.2093 -0.1958,0.2142 l -5.3507,0.2362 c -1.694,0.0747 -1.7491,-0.005 -1.7681,-0.4443 l -0.0269,-0.6181 -0.4241,0.019 0.2968,6.7271 c 1.2118,-0.2044 1.3011,-0.2222 1.295,-0.3599 -0.007,-0.1781 -0.112,-0.2007 -0.2919,-0.2068 -0.2191,-0.003 -0.5594,-0.7179 -0.6279,-2.2828 l -0.0429,-0.9884 c -0.007,-0.1377 0.0306,-0.1805 0.1591,-0.1861 l 2.8097,-0.1242 0.0557,1.2773 c 0.0643,1.4553 -0.0869,1.5165 -0.459,1.5336 l -0.4492,0.019 0.0177,0.4125 2.259,-0.1004 -0.019,-0.4113 -0.4615,0.0203 c -0.2179,0.01 -0.3617,-0.0392 -0.4253,-1.4939 l -0.0569,-1.2779 0.9376,-0.041 c 2.7325,-0.1205 2.7735,-0.0679 2.7937,0.3997 l 0.0215,0.4804 c 0.0324,0.7411 0.115,2.6089 -0.5716,3.0661 -0.0882,0.0581 -0.1634,0.0893 -0.1586,0.2123 0.005,0.0955 0.0716,0.1481 0.161,0.1451 0.115,-0.006 0.3042,-0.0826 1.2032,-0.4113 l -0.284,-6.4535"
           style="fill:#fab217;fill-opacity:1;fill-rule:nonzero;stroke:none"
           id="path2135"
           inkscape:connector-curvature="0" /><path
           d="m 259.1593,384.1078 0.0931,0.4854 c 0.2068,1.0808 -0.0484,2.1359 -1.1836,2.3537 -1.4884,0.2852 -2.1378,-0.9902 -2.2179,-1.4076 l -0.1139,-0.5936 c -0.0263,-0.1353 0.004,-0.183 0.1304,-0.2075 z m 3.6072,-3.1542 -0.4162,0.0802 0.1157,0.6071 c 0.0342,0.1756 -0.0361,0.2173 -0.1622,0.2411 l -5.2608,1.008 c -1.6652,0.3188 -1.7307,0.2472 -1.8139,-0.1842 l -0.1157,-0.6071 -0.4168,0.0801 0.7577,3.9542 c 0.3678,1.9155 1.6781,2.6163 2.713,2.418 1.0973,-0.2105 1.6359,-1.153 1.5722,-2.3023 1.9609,0.8831 2.743,1.2099 3.4443,1.6627 0.4352,0.2944 0.5545,0.3691 0.6549,0.8966 l 0.4168,-0.0802 -0.2944,-1.5385 c -0.0569,-0.2975 -0.104,-0.5404 -0.2301,-0.6561 -0.3776,-0.3335 -2.0582,-1.0471 -3.9952,-1.6689 l -0.1597,-0.8366 1.5135,-0.2895 c 1.6646,-0.32 1.7307,-0.2485 1.814,0.183 l 0.1162,0.6077 0.4162,-0.0789"
           style="fill:#fab217;fill-opacity:1;fill-rule:nonzero;stroke:none"
           id="path2137"
           inkscape:connector-curvature="0" /><path
           d="m 264.8852,396.8564 -2.5373,0.9891 c -0.658,0.257 -1.519,0.593 -2.1286,0.727 -0.3959,0.0814 -0.4547,0 -0.5893,-0.3458 l -0.2001,-0.5116 -0.3948,0.1536 0.9333,2.3947 0.3954,-0.1542 -0.1396,-0.3586 c -0.1303,-0.3329 -0.1548,-0.3966 6e-4,-0.4578 l 7.024,-2.7381 c 0.0838,-0.0324 0.1291,-0.0942 0.0942,-0.1842 -0.041,-0.1028 -0.1658,-0.142 -0.4608,-0.2631 l -8.2143,-3.3177 3.3146,-1.2919 c 0.6585,-0.2565 1.5196,-0.5931 2.1291,-0.7271 0.396,-0.0801 0.4547,0 0.59,0.3452 l 0.1989,0.5128 0.3954,-0.1542 -0.9334,-2.3941 -0.3953,0.1542 0.1402,0.358 c 0.1291,0.3329 0.1542,0.3972 -6e-4,0.4572 l -5.445,2.123 c -0.6702,0.2613 -1.3183,0.1897 -1.5135,-0.3096 l -0.1445,-0.3722 -0.3941,0.1543 0.863,2.2148"
           style="fill:#fab217;fill-opacity:1;fill-rule:nonzero;stroke:none"
           id="path2139"
           inkscape:connector-curvature="0" /><path
           d="m 272.3436,408.6068 -2.186,1.6237 c -0.5673,0.4217 -1.3097,0.9724 -1.8617,1.2632 -0.3605,0.1829 -0.4382,0.1205 -0.6603,-0.1769 l -0.3281,-0.4413 -0.3403,0.2522 1.5337,2.063 0.3403,-0.2533 -0.2301,-0.3085 c -0.213,-0.2864 -0.254,-0.3415 -0.12,-0.4406 l 6.0533,-4.497 c 0.0716,-0.0538 0.0992,-0.1255 0.0416,-0.202 -0.0655,-0.0887 -0.197,-0.0936 -0.514,-0.1315 l -8.8006,-1.0307 2.8562,-2.1211 c 0.5673,-0.4223 1.3097,-0.9732 1.8617,-1.2638 0.3605,-0.1818 0.4388,-0.1206 0.6603,0.1768 l 0.3287,0.4419 0.339,-0.2527 -1.5331,-2.0625 -0.3396,0.2528 0.2295,0.309 c 0.213,0.2858 0.254,0.3409 0.12,0.4413 l -4.6916,3.4853 c -0.5771,0.4284 -1.2216,0.5312 -1.5423,0.101 l -0.2368,-0.3207 -0.3403,0.2534 1.418,1.9082"
           style="fill:#fab217;fill-opacity:1;fill-rule:nonzero;stroke:none"
           id="path2141"
           inkscape:connector-curvature="0" /><path
           d="m 274.813,408.5579 0.4413,0.4339 c 0.1279,0.1242 0.0931,0.1995 0.003,0.2907 l -3.7577,3.8189 c -1.1891,1.208 -1.284,1.1866 -1.5973,0.8782 l -0.4407,-0.4339 -0.2974,0.3029 4.8012,4.721 c 0.7478,-0.9749 0.8017,-1.049 0.7031,-1.1457 -0.1273,-0.1248 -0.219,-0.071 -0.3543,0.0472 -0.1634,0.1462 -0.899,-0.1445 -2.016,-1.243 l -0.7056,-0.6947 c -0.0979,-0.0954 -0.1003,-0.1517 -0.01,-0.2435 l 1.9725,-2.0055 0.9113,0.8965 c 1.0392,1.0215 0.9706,1.1702 0.7087,1.4352 l -0.3158,0.3207 0.2944,0.2888 1.5857,-1.6114 -0.2938,-0.2888 -0.3238,0.3292 c -0.153,0.1561 -0.2919,0.2179 -1.3304,-0.8041 l -0.9113,-0.8948 0.6579,-0.6695 c 1.9192,-1.9504 1.9847,-1.9388 2.3182,-1.6114 l 0.3422,0.3372 c 0.5299,0.5196 1.8623,1.8311 1.6707,2.6334 -0.0239,0.1022 -0.0587,0.1769 0.0306,0.2638 0.068,0.0673 0.1524,0.06 0.2148,-0.005 0.0814,-0.082 0.1677,-0.2675 0.6016,-1.1199 l -4.6059,-4.5288"
           style="fill:#fab217;fill-opacity:1;fill-rule:nonzero;stroke:none"
           id="path2143"
           inkscape:connector-curvature="0" /><path
           d="m 285.6957,426.4864 -0.3409,-0.2307 c -0.194,-0.1316 -0.1916,-0.2081 -0.1176,-0.5618 l 1.6206,-7.7473 c 0.0264,-0.1371 0.0423,-0.2822 -0.0489,-0.344 -0.1022,-0.0692 -0.2081,0.0135 -0.3849,0.1267 l -4.9817,3.1536 1.2356,-5.5881 c 0.0526,-0.2736 0.1169,-0.4174 0.003,-0.4945 -0.1023,-0.0698 -0.1873,-0.0184 -0.3709,0.1058 l -5.8226,3.732 c -1.202,0.7675 -1.2772,0.7313 -1.5275,0.5619 l -0.3642,-0.2479 -0.238,0.3519 2.7864,1.8911 0.2381,-0.3519 -0.5913,-0.4003 c -0.0905,-0.0624 -0.1291,-0.104 -0.0856,-0.1671 0.0502,-0.0746 0.6799,-0.4388 1.1689,-0.7435 l 3.8507,-2.3691 -0.8886,4.0998 c -1.4982,0.9082 -1.5319,0.8856 -1.8281,0.6848 l -0.3402,-0.2319 -0.2387,0.3513 2.9229,1.9835 0.2381,-0.3507 -0.6708,-0.4554 c -0.0918,-0.0617 -0.1297,-0.1028 -0.0936,-0.1566 0.0287,-0.0416 1.4816,-0.9346 1.6505,-1.0367 l 3.4156,-2.1678 -0.4633,2.371 c -0.3225,1.675 -0.694,3.0054 -0.8531,3.2399 -0.0936,0.1377 -0.1536,0.1279 -0.4155,-0.049 l -0.5686,-0.3862 -0.2375,0.3501 2.1041,1.4284"
           style="fill:#fab217;fill-opacity:1;fill-rule:nonzero;stroke:none"
           id="path2145"
           inkscape:connector-curvature="0" /><path
           d="m 293.6535,421.7961 0.5875,0.1927 c 0.1695,0.0557 0.172,0.1371 0.1322,0.2589 l -1.6665,5.0912 c -0.5269,1.6102 -0.6217,1.6341 -1.0398,1.4964 l -0.5875,-0.1922 -0.1316,0.4027 6.3991,2.0961 c 0.2362,-1.2056 0.2509,-1.2956 0.1206,-1.3384 -0.1701,-0.0557 -0.2283,0.0336 -0.2968,0.1995 -0.0808,0.2031 -0.8691,0.2705 -2.3581,-0.2173 l -0.9406,-0.3084 c -0.1304,-0.0435 -0.1573,-0.0924 -0.1182,-0.2142 l 0.8758,-2.6739 1.2142,0.3979 c 1.3844,0.4546 1.3887,0.6168 1.273,0.9718 l -0.1395,0.4271 0.3917,0.128 0.7031,-2.1482 -0.3916,-0.1278 -0.1439,0.4394 c -0.0685,0.2068 -0.1646,0.3243 -1.5489,-0.1292 l -1.2143,-0.3977 0.292,-0.8917 c 0.8506,-2.5998 0.9156,-2.6188 1.3586,-2.4732 l 0.4572,0.1494 c 0.7056,0.2307 2.4817,0.8127 2.6671,1.6175 0.0245,0.1028 0.0263,0.1842 0.1438,0.2222 0.0912,0.0299 0.1634,-0.0135 0.1916,-0.0992 0.0355,-0.1101 0.0299,-0.3145 0.0403,-1.2705 l -6.1383,-2.0116"
           style="fill:#fab217;fill-opacity:1;fill-rule:nonzero;stroke:none"
           id="path2147"
           inkscape:connector-curvature="0" /><path
           d="m 307.3929,427.0721 -0.4205,2.6904 c -0.1083,0.6983 -0.2515,1.6113 -0.4406,2.2056 -0.1304,0.3837 -0.2289,0.3935 -0.5955,0.336 l -0.5434,-0.0851 -0.0655,0.4199 2.5392,0.3965 0.0661,-0.418 -0.3807,-0.0599 c -0.3531,-0.0551 -0.421,-0.0661 -0.3953,-0.2308 l 1.1634,-7.4492 c 0.0141,-0.0888 -0.0172,-0.1591 -0.1126,-0.1732 -0.1084,-0.0178 -0.2057,0.0716 -0.4584,0.265 l -6.9964,5.4327 0.5495,-3.5153 c 0.109,-0.6977 0.2516,-1.6114 0.4419,-2.2057 0.1286,-0.3831 0.2289,-0.3929 0.5949,-0.3366 l 0.5428,0.0857 0.0655,-0.4192 -2.5392,-0.3966 -0.0654,0.418 0.3806,0.06 c 0.3531,0.055 0.4205,0.0655 0.3947,0.2307 l -0.9021,5.7742 c -0.1101,0.7105 -0.4987,1.235 -1.0275,1.1524 l -0.3941,-0.0618 -0.0649,0.418 2.3489,0.3684"
           style="fill:#fab217;fill-opacity:1;fill-rule:nonzero;stroke:none"
           id="path2149"
           inkscape:connector-curvature="0" /><path
           d="m 314.284,428.6333 3.6279,-0.0655 -0.007,-0.4247 -0.6047,0.0116 c -0.1517,0.003 -0.2343,-0.0342 -0.2233,-0.1756 l -0.0325,-1.7987 c -0.0122,-0.6163 0.183,-0.5165 0.1793,-0.6965 -0.002,-0.1162 -0.006,-0.3084 -1.8947,-0.6719 -0.5943,-0.1181 -1.145,-0.1971 -1.8458,-0.1855 -2.735,0.0502 -4.4376,1.6482 -4.3911,4.2173 0.0526,2.9022 2.7203,4.4597 5.5925,4.4071 0.8378,-0.0153 1.8109,-0.1616 2.5618,-0.5092 -0.1695,-1.011 -0.2418,-1.1775 -0.3789,-1.175 -0.1652,0.004 -0.2043,0.1064 -0.2007,0.287 0.003,0.257 -0.727,0.847 -2.1983,0.8745 -0.6456,0.0123 -3.7154,-0.2533 -3.7791,-3.7209 -0.033,-1.8238 0.9896,-3.8202 3.3116,-3.863 0.5226,-0.01 1.0318,0.0716 1.4896,0.2687 l 0.0189,1.0269 c 0.03,1.6952 -0.0514,1.7485 -0.4914,1.7558 l -0.7411,0.0147"
           style="fill:#fab217;fill-opacity:1;fill-rule:nonzero;stroke:none"
           id="path2151"
           inkscape:connector-curvature="0" /><path
           d="m 321.0754,427.4644 c -0.478,-2.694 -0.4303,-2.7411 0.0299,-2.8226 l 0.4731,-0.0844 c 0.7308,-0.1291 2.571,-0.456 3.1151,0.1653 0.0692,0.0783 0.1101,0.1499 0.232,0.1284 0.0942,-0.0171 0.1377,-0.0893 0.1217,-0.178 -0.0201,-0.1145 -0.1217,-0.292 -0.5654,-1.1396 l -6.3599,1.1292 0.0728,0.4173 0.6096,-0.1089 c 0.1756,-0.0312 0.2166,0.0404 0.2392,0.1665 l 0.9346,5.273 c 0.2962,1.6701 0.2246,1.7344 -0.2094,1.8121 l -0.6083,0.1077 0.0729,0.4174 3.4927,-0.6194 -0.0741,-0.4173 -0.6083,0.1077 c -0.1769,0.0312 -0.2173,-0.0392 -0.2259,-0.1683"
           style="fill:#fab217;fill-opacity:1;fill-rule:nonzero;stroke:none"
           id="path2153"
           inkscape:connector-curvature="0" /><path
           d="m 330.6238,428.4014 c -0.814,-0.7914 -1.5551,-1.6206 -2.2913,-2.4395 l 2.3488,-0.8188 z m -2.6646,-2.8403 c -0.5043,-0.5722 -1.3397,-1.5056 -1.4664,-1.8691 -0.0801,-0.2307 0.0489,-0.317 0.2699,-0.3935 l 0.7399,-0.2582 -0.1395,-0.4003 -2.6347,0.9192 0.1402,0.3991 0.4143,-0.1445 c 0.1952,-0.0667 0.2943,-0.0336 0.4137,0.101 1.0104,1.1444 3.3623,3.5484 5.702,5.9988 0.2374,-0.0287 0.9107,-0.1004 1.1052,-0.1689 0.0925,-0.0306 0.1004,-0.1303 0.0754,-0.2032 -0.0502,-0.1444 -0.3189,-0.0789 -0.4027,-0.3213 -0.1481,-0.4241 0.0624,-4.4975 0.1364,-6.5777 0.0465,-1.1176 0.0955,-1.3122 0.5367,-1.4658 l 0.3115,-0.1083 -0.1395,-0.4009 -3.2705,1.1408 0.1401,0.4003 0.5833,-0.2032 c 0.2472,-0.0869 0.3023,-0.0515 0.2962,0.2221 l -0.0465,2.3703"
           style="fill:#fab217;fill-opacity:1;fill-rule:nonzero;stroke:none"
           id="path2155"
           inkscape:connector-curvature="0" /><path
           d="m 340.7096,419.0316 1.3341,2.3734 c 0.3452,0.6156 0.7993,1.4229 1.0172,2.0067 0.1352,0.3807 0.063,0.4517 -0.2595,0.6322 l -0.4792,0.2699 0.2081,0.3685 2.2399,-1.2577 -0.2081,-0.3697 -0.3348,0.1885 c -0.3121,0.1744 -0.3715,0.2081 -0.4541,0.0618 l -3.6934,-6.5728 c -0.0447,-0.079 -0.1114,-0.1139 -0.1964,-0.0661 -0.0955,0.0532 -0.1169,0.1842 -0.1946,0.4914 l -2.1372,8.5968 -1.7442,-3.1016 c -0.3451,-0.6163 -0.7992,-1.4223 -1.0171,-2.0068 -0.1353,-0.3813 -0.063,-0.4504 0.2595,-0.6328 l 0.4792,-0.2687 -0.2069,-0.3696 -2.2411,1.2582 0.2081,0.3691 0.336,-0.1873 c 0.3109,-0.1762 0.3702,-0.2099 0.4528,-0.063 l 2.863,5.0949 c 0.3525,0.6261 0.3727,1.2797 -0.0949,1.541 l -0.3476,0.1958 0.2069,0.3697 2.074,-1.1646"
           style="fill:#fab217;fill-opacity:1;fill-rule:nonzero;stroke:none"
           id="path2157"
           inkscape:connector-curvature="0" /><path
           d="m 347.9758,420.2734 c -0.4994,0.4076 -0.5532,0.4516 -0.667,0.3121 l -2.6524,-3.2564 c -1.7283,-2.12 -1.7094,-2.1849 -1.3471,-2.4799 1.7093,-1.4259 3.7045,-1.544 5.0191,0.0692 1.6303,2.0012 1.1609,4.1224 -0.3526,5.355 m -6.9964,-3.6273 0.4799,-0.3899 c 0.1383,-0.1138 0.2086,-0.071 0.2901,0.0282 l 3.3831,4.153 c 1.0698,1.3146 1.0385,1.4052 0.6977,1.6842 l -0.4792,0.3899 0.2674,0.328 3.2705,-2.6634 c 2.418,-1.97 2.3764,-4.3709 1.112,-5.9248 -1.0795,-1.3237 -3.5036,-2.6456 -6.369,-0.3121 l -2.9187,2.3789"
           style="fill:#fab217;fill-opacity:1;fill-rule:nonzero;stroke:none"
           id="path2159"
           inkscape:connector-curvature="0" /><path
           d="m 358.5812,409.542 -0.3623,0.5006 c -0.1053,0.145 -0.1842,0.1224 -0.2883,0.0471 l -3.4945,-2.5318 c -0.8225,-0.5955 -2.2723,-1.7479 -0.9578,-3.5625 0.3629,-0.5006 1.6518,-2.0618 3.7436,-0.5471 l 1.6224,1.175 c 0.5723,0.415 1.3207,0.9572 1.7644,1.3966 0.2816,0.2895 0.2461,0.3819 0.0282,0.683 l -0.3225,0.4449 0.3445,0.2485 1.5068,-2.0808 -0.3428,-0.2491 -0.2258,0.3109 c -0.2105,0.2907 -0.2497,0.3458 -0.3849,0.2479 l -3.683,-2.6671 c -1.915,-1.3862 -3.7234,-0.4217 -4.7486,0.992 -1.6438,2.2712 -0.9351,3.7008 0.1996,4.5221 l 2.7668,2.0043 c 1.3734,0.9945 1.3678,1.0918 1.1096,1.448 l -0.3636,0.5006 0.3428,0.2485 2.0887,-2.8831"
           style="fill:#fab217;fill-opacity:1;fill-rule:nonzero;stroke:none"
           id="path2161"
           inkscape:connector-curvature="0" /><path
           d="m 360.7789,395.0798 2.4467,1.194 c 0.6347,0.3103 1.4658,0.7161 1.9774,1.0728 0.3275,0.2363 0.3091,0.3342 0.1457,0.6677 l -0.2418,0.4939 0.3813,0.1861 1.1286,-2.3091 -0.3813,-0.1854 -0.1683,0.3457 c -0.1567,0.3201 -0.1879,0.3825 -0.3373,0.3091 l -6.7748,-3.3072 c -0.0814,-0.0392 -0.1566,-0.0313 -0.2001,0.055 -0.0478,0.0992 0.009,0.2185 0.1199,0.5178 l 3.128,8.2859 -3.1977,-1.5613 c -0.6347,-0.3096 -1.4652,-0.7154 -1.9768,-1.0722 -0.3274,-0.2368 -0.3084,-0.3347 -0.1456,-0.6671 l 0.2411,-0.4944 -0.3813,-0.1855 -1.1273,2.3085 0.38,0.186 0.169,-0.3451 c 0.1566,-0.3219 0.1873,-0.3826 0.3384,-0.3097 l 5.251,2.5636 c 0.645,0.3158 1.0324,0.8403 0.7968,1.322 l -0.1744,0.3574 0.38,0.1866 1.0435,-2.1358"
           style="fill:#fab217;fill-opacity:1;fill-rule:nonzero;stroke:none"
           id="path2163"
           inkscape:connector-curvature="0" /><path
           d="m 361.9766,391.1122 c -1.6041,-0.5496 -1.6255,-0.6444 -1.4835,-1.06 l 0.2007,-0.585 -0.4015,-0.1371 -1.1536,3.3672 0.4009,0.1371 0.2007,-0.5857 c 0.0581,-0.1683 0.1396,-0.1695 0.2613,-0.1279 l 5.0674,1.7368 c 1.604,0.5502 1.6255,0.6445 1.4835,1.0606 l -0.2014,0.5845 0.4021,0.1371 1.153,-3.366 -0.4014,-0.1377 -0.1996,0.585 c -0.0587,0.1684 -0.1395,0.1696 -0.2619,0.128"
           style="fill:#fab217;fill-opacity:1;fill-rule:nonzero;stroke:none"
           id="path2165"
           inkscape:connector-curvature="0" /><path
           d="m 369.7655,382.4714 -0.1291,0.6187 c -0.0166,0.0808 -0.019,0.0936 -0.3611,0.1628 l -7.9977,1.6769 c -0.1529,0.0385 -0.2368,0.0624 -0.2557,0.1566 -0.0203,0.0949 0.025,0.1316 0.1052,0.1904 l 5.6396,4.1096 c 1.2032,0.8966 1.3421,1.052 1.2729,1.3874 l -0.0899,0.4314 0.4149,0.0863 0.691,-3.3244 -0.415,-0.0862 -0.1169,0.5661 c -0.0312,0.1475 -0.0477,0.2282 -0.1364,0.2099 -0.0625,-0.0129 -0.4768,-0.3525 -1.0349,-0.7638 l -3.8826,-2.8446 3.904,-0.8568 c 0.399,-0.0857 1.5453,-0.2968 1.885,-0.2264 0.1621,0.0349 0.1621,0.1603 0.1205,0.3623 l -0.1481,0.7136 0.4149,0.0862 0.5343,-2.5697"
           style="fill:#fab217;fill-opacity:1;fill-rule:nonzero;stroke:none"
           id="path2167"
           inkscape:connector-curvature="0" /><path
           d="m 362.5182,381.0393 0.0336,-0.6181 c 0.009,-0.1793 0.0882,-0.202 0.2161,-0.1946 l 5.3489,0.2925 c 1.6927,0.0936 1.7393,0.1781 1.7154,0.6169 l -0.0336,0.6181 0.4234,0.0233 0.3678,-6.7253 c -1.2258,0.0839 -1.317,0.093 -1.3243,0.2307 -0.009,0.1781 0.0912,0.2112 0.2693,0.2357 0.2184,0.025 0.4865,0.7686 0.4002,2.3341 l -0.0539,0.9878 c -0.008,0.1371 -0.0489,0.1762 -0.1768,0.1695 l -2.8091,-0.1542 0.0698,-1.2767 c 0.0795,-1.4541 0.2362,-1.5012 0.6083,-1.4804 l 0.4492,0.0245 0.0226,-0.4112 -2.2576,-0.1243 -0.0214,0.4124 0.4614,0.0246 c 0.2173,0.0122 0.3562,0.0746 0.276,1.5294 l -0.0698,1.2766 -0.9357,-0.0514 c -2.7326,-0.15 -2.7681,-0.2069 -2.743,-0.6732 l 0.0276,-0.4805 c 0.0404,-0.7411 0.1419,-2.6077 0.8708,-2.9945 0.0924,-0.0501 0.1714,-0.074 0.1781,-0.1958 0.005,-0.0967 -0.0557,-0.1554 -0.1456,-0.1603 -0.1157,-0.006 -0.3122,0.0514 -1.2381,0.2907 l -0.3525,6.4498"
           style="fill:#fab217;fill-opacity:1;fill-rule:nonzero;stroke:none"
           id="path2169"
           inkscape:connector-curvature="0" /><path
           d="m 366.3469,370.9248 -0.0465,-0.4927 c -0.1029,-1.0936 0.2509,-2.1212 1.402,-2.2301 1.5098,-0.1438 2.0355,1.1867 2.0747,1.6114 l 0.0576,0.601 c 0.0134,0.1377 -0.0215,0.1817 -0.1494,0.1934 z m -3.8893,2.7993 0.4217,-0.0404 -0.0588,-0.6157 c -0.0153,-0.1769 0.0588,-0.213 0.1867,-0.2246 l 5.3323,-0.5055 c 1.6879,-0.1616 1.7473,-0.0839 1.7883,0.3537 l 0.0581,0.6169 0.4223,-0.041 -0.3801,-4.008 c -0.1842,-1.9431 -1.4222,-2.7644 -2.4706,-2.6652 -1.1132,0.1064 -1.7393,0.9932 -1.7846,2.1444 -1.8684,-1.0655 -2.6169,-1.4645 -3.2717,-1.9823 -0.4052,-0.3329 -0.5178,-0.4192 -0.568,-0.9522 l -0.4217,0.0391 0.1482,1.56 c 0.0275,0.2999 0.0514,0.5477 0.1671,0.6745 0.3445,0.3678 1.9485,1.2368 3.8182,2.0391 l 0.0802,0.8483 -1.5337,0.145 c -1.6891,0.161 -1.7479,0.0832 -1.7883,-0.3537 l -0.0587,-0.6157 -0.4217,0.0392"
           style="fill:#fab217;fill-opacity:1;fill-rule:nonzero;stroke:none"
           id="path2171"
           inkscape:connector-curvature="0" /><path
           d="m 367.413,364.1561 c 1.5202,-0.3795 1.8751,-2.2528 1.5048,-3.7455 -0.1364,-0.5471 -0.3286,-1.1077 -0.6444,-1.5826 -0.3274,0.0679 -0.8403,0.1383 -1.0398,0.1885 -0.1493,0.0379 -0.1505,0.1371 -0.1279,0.2307 0.0337,0.1334 0.1402,0.1346 0.2583,0.1334 0.5667,-0.0128 0.9694,0.8642 1.0888,1.3434 0.2129,0.8537 0.005,1.8831 -0.893,2.1059 -1.97,0.4902 -2.1156,-4.09 -5.1322,-3.3391 -0.4112,0.1022 -2.3972,1.0067 -1.6548,3.9951 0.1817,0.7338 0.4963,1.4627 0.9051,2.0974 0.7436,-0.0429 1.0796,-0.0276 1.2289,-0.0643 0.0741,-0.0196 0.2112,-0.0527 0.1609,-0.2528 -0.0391,-0.1603 -0.1707,-0.156 -0.3047,-0.1652 -0.7491,-0.0832 -1.3299,-1.1426 -1.4988,-1.8226 -0.2558,-1.0269 -0.006,-2.208 1.0532,-2.4724 2.1194,-0.5263 2.2399,4.06 5.0956,3.3501"
           style="fill:#fab217;fill-opacity:1;fill-rule:nonzero;stroke:none"
           id="path2173"
           inkscape:connector-curvature="0" /><path
           d="m 361.1724,356.5538 c -1.5943,0.5759 -1.6708,0.5153 -1.8207,0.1016 l -0.2099,-0.582 -0.3985,0.1444 1.2088,3.3495 0.399,-0.1444 -0.2105,-0.5827 c -0.0606,-0.1683 0.002,-0.2197 0.1236,-0.2625 l 5.038,-1.8195 c 1.5936,-0.5747 1.6701,-0.5153 1.8194,-0.1016 l 0.21,0.582 0.3984,-0.1432 -1.2087,-3.3495 -0.3978,0.1433 0.2105,0.5826 c 0.0593,0.1683 -0.004,0.2197 -0.1249,0.2637"
           style="fill:#fab217;fill-opacity:1;fill-rule:nonzero;stroke:none"
           id="path2175"
           inkscape:connector-curvature="0" /><path
           d="m 356.1724,350.8065 1.9014,3.8287 0.3795,-0.1891 -0.4578,-0.9229 c -0.0802,-0.1598 -0.0232,-0.2185 0.0918,-0.2761 l 6.2932,-3.1242 0.1163,0.2344 c 0.2809,0.5661 0.9235,1.9192 0.5018,2.5123 -0.1016,0.1425 -0.1579,0.2319 -0.1028,0.3433 0.0428,0.0857 0.1255,0.1371 0.2173,0.0906 0.0459,-0.0227 0.227,-0.2357 0.9388,-0.9407 l -3.1549,-6.3519 c -0.992,0.1389 -1.2717,0.1554 -1.317,0.1781 -0.0918,0.0453 -0.1016,0.1419 -0.0588,0.2282 0.0551,0.1114 0.1604,0.1206 0.3348,0.1255 0.7283,0.0214 1.418,1.3519 1.6989,1.9186 l 0.1157,0.2344 -4.9113,2.4382 c -1.5184,0.7546 -1.6022,0.7032 -1.7968,0.3097 l -0.4101,-0.825"
           style="fill:#fab217;fill-opacity:1;fill-rule:nonzero;stroke:none"
           id="path2177"
           inkscape:connector-curvature="0" /><path
           d="m 354.6295,344.4246 c -1.388,0.9755 -1.4774,0.9369 -1.7295,0.5771 l -0.3562,-0.5055 -0.347,0.2429 2.0465,2.9138 0.347,-0.2436 -0.3561,-0.5068 c -0.1029,-0.1456 -0.0551,-0.2129 0.0501,-0.287 l 2.333,-1.6389 3.5563,-0.2797 c 1.3697,-0.1053 1.44,-0.004 1.5667,0.1757 l 0.284,0.4057 0.347,-0.2442 -2.0208,-2.8794 -0.3482,0.2436 0.4186,0.5954 c 0.0324,0.0453 0.0452,0.0875 -0.007,0.1243 -0.0416,0.0287 -0.2411,0.0348 -0.2821,0.0452 l -3.7675,0.3121 c 1.2338,-2.7129 1.672,-3.3408 1.7877,-3.4223 0.126,-0.0881 0.2001,-0.005 0.3103,0.1518 l 0.4112,0.5851 0.3464,-0.243 -1.4688,-2.093 -0.347,0.2442 0.1983,0.2809 c 0.1726,0.2473 0.1542,0.3103 0.002,0.6536 l -1.8402,3.9945"
           style="fill:#fab217;fill-opacity:1;fill-rule:nonzero;stroke:none"
           id="path2179"
           inkscape:connector-curvature="0" /><path
           d="m 302.5624,326.1099 c 1.0171,-0.1035 2.0288,-0.1561 3.0698,-0.2002 l -0.9352,-6.101 c -0.2546,-1.6622 -0.167,-1.7264 0.2632,-1.7925 l 1.0637,-0.1616 -0.0631,-0.4168 -4.6322,0.7105 0.0636,0.4144 1.3336,-0.2032 c 0.175,-0.0276 0.213,0.0441 0.2319,0.1701 l 0.7399,4.8311 c 0.2455,1.5974 0.1646,1.9719 0.0686,2.0619 -0.0955,0.0924 -0.2558,0.1303 -0.6193,0.1873 l -0.6194,0.0936"
           style="fill:#fab217;fill-opacity:1;fill-rule:nonzero;stroke:none"
           id="path2181"
           inkscape:connector-curvature="0" /><path
           d="m 310.9731,321.6722 c 0.0453,1.0802 -0.0882,3.3703 -1.6249,3.4542 -1.1285,0.0618 -1.4932,-1.1035 -1.5385,-1.9425 -0.0594,-1.0802 0.3115,-2.5294 1.7117,-2.6059 0.5307,-0.0282 0.9792,0.1885 1.4193,0.5092 z m -4.3471,-4.1481 c 2.1898,-0.1193 3.8924,1.0747 4.2179,3.0459 -0.9051,-0.6016 -1.5459,-0.8335 -2.1303,-0.8011 -1.5783,0.0857 -2.3715,1.5196 -2.2975,2.8795 0.09,1.6395 1.4187,2.9823 3.2406,2.8819 2.1762,-0.12 2.9156,-1.8042 2.8158,-3.6218 -0.1671,-3.0637 -2.6181,-4.9689 -5.8691,-4.7902"
           style="fill:#fab217;fill-opacity:1;fill-rule:nonzero;stroke:none"
           id="path2183"
           inkscape:connector-curvature="0" /><path
           d="m 312.5006,325.1362 c 1.0184,0.0979 2.0197,0.246 3.049,0.4088 l 0.2858,-6.1677 c 0.0765,-1.6794 0.1745,-1.7259 0.6108,-1.7045 l 1.0747,0.049 0.019,-0.4199 -4.6806,-0.2172 -0.0196,0.4192 1.347,0.0637 c 0.1769,0.008 0.2001,0.0844 0.1952,0.2123 l -0.2258,4.8844 c -0.0753,1.6151 -0.2277,1.9639 -0.3396,2.0355 -0.1127,0.0716 -0.2761,0.0765 -0.6445,0.06 l -0.6255,-0.03"
           style="fill:#fab217;fill-opacity:1;fill-rule:nonzero;stroke:none"
           id="path2185"
           inkscape:connector-curvature="0" /><path
           d="m 322.155,322.5339 c -0.1794,1.0674 -0.7828,3.2785 -2.3048,3.0435 -1.1176,-0.1726 -1.232,-1.3892 -1.1041,-2.2197 0.1659,-1.0686 0.8281,-2.4101 2.2148,-2.1946 0.5257,0.0813 0.9193,0.3874 1.2834,0.7925 z m -3.3948,-4.9584 c 2.1671,0.336 3.5863,1.8568 3.4976,3.8525 -0.7626,-0.7741 -1.3409,-1.1352 -1.9199,-1.2252 -1.5618,-0.2411 -2.6353,0.997 -2.8446,2.3434 -0.2509,1.623 0.7712,3.2105 2.5747,3.4902 2.1549,0.3335 3.2271,-1.1622 3.5055,-2.9608 0.4701,-3.0325 -1.5336,-5.404 -4.7509,-5.9028"
           style="fill:#fab217;fill-opacity:1;fill-rule:nonzero;stroke:none"
           id="path2187"
           inkscape:connector-curvature="0" /><path
           d="m 287.3187,399.7494 c -6e-4,-1.0808 0.0539,-1.1133 0.3421,-1.1133 h 0.4051 v -0.2705 l -2.3329,0.001 v 0.2705 l 0.4051,-7e-4 c 0.1175,0 0.1359,0.0496 0.1359,0.131 l 0.002,3.4138 c 0,1.0802 -0.0538,1.1132 -0.3421,1.1138 h -0.4045 v 0.2699 l 2.3323,-0.001 v -0.2699 h -0.4051 c -0.1181,0 -0.1359,-0.049 -0.1359,-0.1316 l -10e-4,-2.374 c 0.7387,0.6469 1.4327,1.2852 2.0906,1.9315 0.09,0.0814 0.4143,0.4174 0.4143,0.4902 0,0.0741 -0.0814,0.0826 -0.1713,0.0826 h -0.5857 l 5e-4,0.2699 1.9456,-10e-4 -6e-4,-0.2699 c -0.3507,0 -0.3868,0.001 -0.6842,-0.2772 -0.5765,-0.549 -1.1983,-1.0888 -1.8378,-1.6365 0.8366,-0.9584 1.9975,-2.3262 2.2319,-2.5386 0.1793,-0.164 0.2693,-0.2044 0.6475,-0.2056 v -0.2699 l -1.2068,6e-4 c -0.3507,0 -0.3954,0.0171 -0.7828,0.4829 l -1.5655,1.9167 -0.4963,-0.4008"
           style="fill:#2057af;fill-opacity:1;fill-rule:nonzero;stroke:none"
           id="path2189"
           inkscape:connector-curvature="0" /><path
           d="m 296.5941,399.8503 10e-4,1.7357 c 0,0.4504 0,1.0398 -0.0624,1.4333 -0.0453,0.2533 -0.1084,0.2693 -0.3513,0.2699 h -0.3605 l 6e-4,0.2705 1.6836,-0.001 v -0.2705 h -0.2521 c -0.2344,0 -0.2791,0 -0.2791,-0.1059 l -0.003,-4.8055 c 0,-0.0575 -0.0269,-0.0979 -0.0899,-0.0979 -0.0716,0 -0.1261,0.0655 -0.2705,0.2124 l -3.9774,4.112 -0.001,-2.2674 c -7e-4,-0.4504 -7e-4,-1.0398 0.0624,-1.4334 0.0447,-0.2533 0.1077,-0.2692 0.3507,-0.2699 h 0.3598 v -0.2705 l -1.6836,10e-4 v 0.2705 h 0.2521 c 0.2338,0 0.2791,0 0.2791,0.1058 l 0.003,3.7247 c 0,0.4584 -0.1977,0.8262 -0.549,0.8274 h -0.2613 v 0.2699 l 1.5581,-6e-4"
           style="fill:#2057af;fill-opacity:1;fill-rule:nonzero;stroke:none"
           id="path2191"
           inkscape:connector-curvature="0" /><path
           d="m 302.4583,400.649 c 10e-4,2.112 -1.287,2.7675 -2.1144,2.7675 -0.2797,0 -1.7742,-0.0557 -1.7754,-2.1512 -10e-4,-2.112 1.2852,-2.7687 2.1144,-2.7687 0.2791,0 1.7742,0.0563 1.7754,2.1524 m -4.9345,0.1738 c 6e-4,1.6292 1.235,2.8893 3.0814,2.8887 1.7552,-7e-4 2.8984,-1.0331 2.8978,-2.6206 -10e-4,-1.6292 -1.2356,-2.8893 -3.0814,-2.8881 -1.7558,0 -2.899,1.0325 -2.8978,2.62"
           style="fill:#2057af;fill-opacity:1;fill-rule:nonzero;stroke:none"
           id="path2193"
           inkscape:connector-curvature="0" /><path
           d="m 311.7889,403.2794 h -0.2693 c -0.1536,0 -0.1805,-0.0404 -0.2711,-0.2534 l -1.9743,-4.6653 c -0.0361,-0.0813 -0.0814,-0.1634 -0.153,-0.1634 -0.0814,0 -0.1083,0.0821 -0.1628,0.205 l -1.5373,3.4474 -1.3887,-3.3886 c -0.0722,-0.164 -0.0906,-0.2619 -0.1805,-0.2619 -0.0808,0 -0.1077,0.0575 -0.1622,0.1885 l -1.7803,4.0526 c -0.3697,0.8354 -0.4229,0.844 -0.6212,0.844 h -0.2876 v 0.2699 l 2.2062,-10e-4 -6e-4,-0.2698 h -0.4681 c -0.0722,0 -0.1078,-0.009 -0.1078,-0.0576 0,-0.0569 0.2069,-0.4743 0.3599,-0.8103 l 1.2136,-2.6285 1.0281,2.4805 c -0.4767,1.0146 -0.5036,1.0146 -0.7381,1.0146 l -0.2698,10e-4 v 0.2692 l 2.314,-10e-4 v -0.2699 l -0.5313,6e-4 c -0.0722,0 -0.1077,-0.008 -0.1077,-0.049 0,-0.0336 0.459,-1.0232 0.5123,-1.1383 l 1.0526,-2.3666 0.6218,1.4168 c 0.4419,0.9982 0.7307,1.8324 0.7307,2.0129 0,0.1065 -0.0355,0.1224 -0.2423,0.123 h -0.4511 v 0.2699 l 1.6665,-0.001"
           style="fill:#2057af;fill-opacity:1;fill-rule:nonzero;stroke:none"
           id="path2195"
           inkscape:connector-curvature="0" /><path
           d="m 313.8954,400.4373 c -10e-4,-1.743 0.0349,-1.7681 0.3409,-1.7681 h 0.3152 c 0.4865,-6e-4 1.7105,-10e-4 1.9902,0.4498 0.0361,0.0569 0.0538,0.1059 0.1352,0.1059 0.0631,0 0.0992,-0.0416 0.0992,-0.0992 0,-0.0728 -0.0453,-0.1958 -0.2344,-0.7766 l -4.2326,0.002 v 0.2699 l 0.4051,-7e-4 c 0.1169,0 0.1353,0.049 0.1353,0.131 l 0.001,3.4137 c 6e-4,1.0808 -0.0526,1.1132 -0.3409,1.1132 h -0.4051 v 0.2699 l 2.3238,-6e-4 -10e-4,-0.2693 h -0.4051 c -0.1169,0 -0.1353,-0.0489 -0.1255,-0.1315"
           style="fill:#2057af;fill-opacity:1;fill-rule:nonzero;stroke:none"
           id="path2197"
           inkscape:connector-curvature="0" /><path
           d="m 317.2963,398.6178 h 0.4051 c 0.1175,0 0.1353,0.049 0.1353,0.1316 l 0.002,3.4131 c 0,1.0808 -0.0538,1.1132 -0.3421,1.1132 h -0.4052 v 0.2705 l 4.4138,-0.002 c -0.0998,-0.7773 -0.1089,-0.8342 -0.1983,-0.8342 -0.1181,0 -0.1353,0.0655 -0.145,0.1793 -0.009,0.1395 -0.4872,0.3366 -1.5117,0.3366 h -0.6493 c -0.0894,0 -0.1169,-0.0238 -0.1169,-0.1065 v -1.7919 l 0.836,-6e-4 c 0.9547,0 0.9908,0.0979 0.9908,0.3348 v 0.2864 h 0.2699 v -1.4401 h -0.2705 v 0.2944 c 0,0.1395 -0.0355,0.2289 -0.9902,0.2295 l -0.8372,6e-4 v -0.5973 c -0.002,-1.7442 0.0343,-1.7681 0.3402,-1.7687 l 0.3158,-6e-4 c 0.4866,0 1.7112,0 1.9903,0.4498 0.0367,0.0569 0.0551,0.1059 0.1364,0.1059 0.0618,0 0.098,-0.0404 0.098,-0.0979 -1e-4,-0.0741 -0.0441,-0.1958 -0.2344,-0.7779 l -4.2326,0.002"
           style="fill:#2057af;fill-opacity:1;fill-rule:nonzero;stroke:none"
           id="path2199"
           inkscape:connector-curvature="0" /><path
           d="m 324.5117,403.2231 c -0.4228,0 -0.4687,0 -0.4687,-0.1151 l -0.001,-2.6775 c 0,-1.7423 0.0349,-1.7674 0.3409,-1.7674 1.4597,-0.0172 2.5221,0.727 2.5233,2.0532 10e-4,1.6457 -1.1151,2.5056 -2.3942,2.5068 m -2.0556,-4.6078 h 0.4051 c 0.1169,0 0.1359,0.0478 0.1359,0.1304 l 10e-4,3.4137 c 0,1.0802 -0.0538,1.1126 -0.3415,1.1126 h -0.4052 v 0.2699 l 2.7645,-6e-4 c 2.044,-10e-4 3.0171,-1.205 3.0159,-2.4817 -0.001,-1.0887 -0.6861,-2.7178 -3.109,-2.716 l -2.4669,0.001"
           style="fill:#2057af;fill-opacity:1;fill-rule:nonzero;stroke:none"
           id="path2201"
           inkscape:connector-curvature="0" /><path
           d="m 332.1575,400.7463 2.3776,-6e-4 v -0.2699 h -0.3972 c -0.0979,-6e-4 -0.1518,-0.0251 -0.1432,-0.1157 v -1.1462 c -0.001,-0.3923 0.1255,-0.3275 0.1255,-0.4419 0,-0.0735 0,-0.1964 -1.2351,-0.4498 -0.3867,-0.0814 -0.7466,-0.1389 -1.2056,-0.1389 -1.7931,0.001 -2.9266,1.0012 -2.9266,2.6383 0.002,1.8501 1.7314,2.8721 3.6139,2.8709 0.5496,0 1.1879,-0.082 1.683,-0.295 -0.0992,-0.6469 -0.1451,-0.7522 -0.2344,-0.7522 -0.1078,0 -0.1353,0.0655 -0.1353,0.18 0,0.1633 -0.4853,0.5324 -1.4486,0.5324 -0.4241,6e-4 -2.4315,-0.2032 -2.4327,-2.4143 -6e-4,-1.1616 0.691,-2.4236 2.2142,-2.4242 0.3416,0 0.6751,0.0576 0.9719,0.1879 l 0.001,0.6549 c 0,1.0807 -0.0538,1.1132 -0.3421,1.1138 l -0.4865,6e-4"
           style="fill:#2057af;fill-opacity:1;fill-rule:nonzero;stroke:none"
           id="path2203"
           inkscape:connector-curvature="0" /><path
           d="m 335.0945,398.6074 h 0.4051 c 0.1175,0 0.1353,0.0489 0.1353,0.1309 l 0.002,3.4138 c 0,1.0807 -0.0538,1.1126 -0.3421,1.1126 l -0.4052,6e-4 v 0.2711 l 4.4125,-0.002 c -0.0997,-0.7785 -0.1095,-0.8354 -0.1988,-0.8354 -0.1176,0 -0.1353,0.0655 -0.1439,0.1799 -0.009,0.139 -0.4865,0.336 -1.511,0.336 l -0.6499,10e-4 c -0.0894,0 -0.1169,-0.0251 -0.1169,-0.1064 l -6e-4,-1.7926 0.8372,-10e-4 c 0.9541,0 0.9896,0.0979 0.9896,0.336 l 0.001,0.2858 0.2699,-7e-4 -6e-4,-1.44 h -0.2705 v 0.295 c 6e-4,0.1389 -0.0355,0.2289 -0.9908,0.2295 h -0.8367 v -0.5973 c -10e-4,-1.743 0.0343,-1.7681 0.341,-1.7681 h 0.3158 c 0.4865,0 1.7099,-10e-4 1.9895,0.4492 0.0361,0.057 0.0539,0.1059 0.1353,0.1059 0.063,0 0.0992,-0.041 0.0992,-0.0985 0,-0.0729 -0.0453,-0.1959 -0.2351,-0.7767 l -4.2313,0.002"
           style="fill:#2057af;fill-opacity:1;fill-rule:nonzero;stroke:none"
           id="path2205"
           inkscape:connector-curvature="0" /><path
           d="m 345.3081,380.1281 c -0.929,0.5513 -0.9847,0.522 -1.1322,0.2741 l -0.2068,-0.3489 -0.2314,0.1384 1.1891,2.0061 0.2332,-0.1377 -0.2068,-0.3488 c -0.06,-0.1004 -0.0264,-0.1414 0.0428,-0.183 l 2.937,-1.743 c 0.9303,-0.5508 0.9859,-0.5214 1.1334,-0.2736 l 0.2069,0.3489 0.2313,-0.1383 -1.1891,-2.0056 -0.2332,0.1371 0.2069,0.3489 c 0.06,0.1009 0.0275,0.1414 -0.0429,0.183"
           style="fill:#2057af;fill-opacity:1;fill-rule:nonzero;stroke:none"
           id="path2207"
           inkscape:connector-curvature="0" /><path
           d="m 342.2108,374.6971 1.4927,-0.8855 c 0.3874,-0.2295 0.8953,-0.5306 1.2649,-0.6769 0.2412,-0.0906 0.2883,-0.0441 0.4126,0.1653 l 0.183,0.3096 0.2325,-0.1389 -0.8592,-1.4486 -0.2332,0.1383 0.1291,0.2166 c 0.1193,0.202 0.1439,0.2406 0.0514,0.2938 l -4.1347,2.4535 c -0.0489,0.0294 -0.0703,0.0735 -0.0379,0.1273 0.0355,0.0624 0.1206,0.0753 0.3201,0.1243 l 5.568,1.3255 -1.9523,1.1586 c -0.3868,0.2295 -0.8941,0.5306 -1.2644,0.6762 -0.2417,0.0912 -0.287,0.0459 -0.4113,-0.1634 l -0.1842,-0.3097 -0.2319,0.1378 0.8598,1.4486 0.232,-0.139 -0.1292,-0.216 c -0.1199,-0.202 -0.1426,-0.2405 -0.0502,-0.295 l 3.2045,-1.9009 c 0.3947,-0.2344 0.8115,-0.2515 0.9908,0.0502 l 0.134,0.2246 0.232,-0.1377 -0.795,-1.3409"
           style="fill:#2057af;fill-opacity:1;fill-rule:nonzero;stroke:none"
           id="path2209"
           inkscape:connector-curvature="0" /><path
           d="m 338.1575,370.7859 1.4297,2.41 0.2331,-0.1377 -0.3458,-0.5802 c -0.0593,-0.1022 -0.0263,-0.1432 0.0447,-0.1836 l 3.8526,-2.2852 0.0869,0.1457 c 0.2117,0.3574 0.6983,1.2093 0.4602,1.6132 -0.0563,0.0955 -0.0875,0.1561 -0.0465,0.2252 0.0324,0.0551 0.0881,0.0845 0.1444,0.0514 0.0276,-0.0171 0.1328,-0.1627 0.5477,-0.6499 l -2.3702,-3.997 c -0.628,0.131 -0.8061,0.1524 -0.8336,0.1689 -0.0556,0.0337 -0.0569,0.0974 -0.0251,0.1506 0.0423,0.0704 0.1102,0.0722 0.2216,0.0685 0.4669,-0.0159 0.9822,0.8207 1.194,1.1763 l 0.0869,0.1481 -3.0074,1.7834 c -0.9296,0.5508 -0.9859,0.522 -1.1328,0.2735 l -0.3072,-0.5189"
           style="fill:#2057af;fill-opacity:1;fill-rule:nonzero;stroke:none"
           id="path2211"
           inkscape:connector-curvature="0" /><path
           d="m 337.5168,369.1775 -0.2063,-0.3476 c -0.06,-0.1004 -0.0269,-0.1414 0.0435,-0.183 l 2.937,-1.743 c 0.9302,-0.552 0.9853,-0.522 1.1322,-0.2735 l 0.2068,0.3476 0.2338,-0.1371 -2.2528,-3.7962 c -0.6175,0.4828 -0.6634,0.5196 -0.6175,0.596 0.0612,0.1017 0.1248,0.0839 0.2295,0.0325 0.1242,-0.0636 0.5367,0.2472 1.0606,1.131 l 0.3305,0.5569 c 0.0453,0.0777 0.0385,0.1132 -0.0312,0.1554 l -1.5435,0.9156 -0.4259,-0.721 c -0.4878,-0.8213 -0.4217,-0.9026 -0.2179,-1.0232 l 0.246,-0.1469 -0.1377,-0.2319 -1.2393,0.735 0.1371,0.2331 0.254,-0.1505 c 0.1205,-0.0716 0.216,-0.0863 0.7026,0.735 l 0.4284,0.7209 -0.5147,0.3048 c -1.4994,0.8892 -1.5392,0.8715 -1.6959,0.6071 l -0.1615,-0.2699 c -0.2473,-0.4186 -0.8728,-1.4718 -0.6274,-1.9425 0.0313,-0.0599 0.0631,-0.1003 0.0227,-0.1701 -0.0318,-0.0545 -0.0863,-0.0643 -0.1347,-0.0355 -0.063,0.0379 -0.1462,0.1383 -0.5501,0.5985 l 2.1597,3.6402"
           style="fill:#2057af;fill-opacity:1;fill-rule:nonzero;stroke:none"
           id="path2213"
           inkscape:connector-curvature="0" /><path
           d="m 335.0045,360.754 -1.2118,-2.0454 -0.2331,0.1377 0.2019,0.3403 c 0.0502,0.0863 0.0569,0.1451 -0.025,0.183 l -0.9866,0.5857 c -0.3379,0.1995 -0.3452,0.0587 -0.4443,0.1175 -0.0637,0.0367 -0.1689,0.1004 0.2423,1.2895 0.1267,0.3751 0.262,0.7148 0.4964,1.1108 0.9143,1.5404 2.3525,2.0067 3.7613,1.1713 1.5912,-0.9443 1.59,-2.9541 0.6292,-4.5734 -0.2797,-0.4719 -0.6769,-0.9805 -1.1133,-1.2981 -0.5055,0.4162 -0.5746,0.5092 -0.5282,0.5857 0.0551,0.093 0.1255,0.0838 0.2235,0.0238 0.1413,-0.0826 0.7068,0.1481 1.1976,0.9768 0.2167,0.3629 1.0655,2.1959 -0.8366,3.3238 -1.0006,0.593 -2.4382,0.6407 -3.2154,-0.669 -0.1744,-0.2943 -0.295,-0.6095 -0.3336,-0.9326 l 0.5631,-0.3348 c 0.9302,-0.5508 0.9853,-0.5208 1.1322,-0.2736 l 0.2484,0.4187"
           style="fill:#2057af;fill-opacity:1;fill-rule:nonzero;stroke:none"
           id="path2215"
           inkscape:connector-curvature="0" /><path
           d="m 332.797,356.5826 -0.1652,-0.2791 c -0.3679,-0.6206 -0.4517,-1.3244 0.1817,-1.7002 0.8312,-0.4932 1.5086,0.153 1.6524,0.3929 l 0.2008,0.341 c 0.0465,0.0777 0.0391,0.1131 -0.0313,0.1554 z m -1.4596,2.7087 0.2332,-0.1377 -0.2069,-0.3495 c -0.0594,-0.1004 -0.0263,-0.1407 0.0435,-0.183 l 2.9376,-1.7423 c 0.929,-0.5509 0.9853,-0.5208 1.1322,-0.2736 l 0.2068,0.3488 0.232,-0.1389 -1.3465,-2.268 c -0.6523,-1.1011 -1.5991,-1.2516 -2.1762,-0.9089 -0.612,0.3636 -0.7246,1.0582 -0.4266,1.7516 -1.3794,-0.1243 -1.9235,-0.1579 -2.4467,-0.2871 -0.3293,-0.0893 -0.4162,-0.1101 -0.5955,-0.4112 l -0.2332,0.1371 0.5233,0.8831 c 0.1016,0.1714 0.1842,0.3097 0.287,0.3537 0.3023,0.1249 1.4725,0.205 2.7779,0.1738 l 0.2858,0.4805 -0.8464,0.5018 c -0.9284,0.5508 -0.9848,0.5214 -1.1316,0.2742 l -0.2069,-0.3489 -0.2319,0.1377"
           style="fill:#2057af;fill-opacity:1;fill-rule:nonzero;stroke:none"
           id="path2217"
           inkscape:connector-curvature="0" /><path
           d="m 328.9169,352.498 c -0.929,0.5521 -0.9847,0.5227 -1.1322,0.2749 l -0.2068,-0.3489 -0.2314,0.1377 1.1891,2.0068 0.2332,-0.139 -0.2068,-0.3476 c -0.06,-0.1003 -0.0264,-0.1426 0.0428,-0.183 l 2.937,-1.743 c 0.9302,-0.552 0.9859,-0.522 1.1334,-0.2735 l 0.2069,0.3476 0.2313,-0.1371 -1.1903,-2.0067 -0.232,0.1383 0.2069,0.3488 c 0.0599,0.101 0.0263,0.1414 -0.0429,0.183"
           style="fill:#2057af;fill-opacity:1;fill-rule:nonzero;stroke:none"
           id="path2219"
           inkscape:connector-curvature="0" /><path
           d="m 325.0797,348.7422 1.4296,2.4089 0.232,-0.1377 -0.3446,-0.5821 c -0.0594,-0.1003 -0.0275,-0.1401 0.0435,-0.1817 l 3.8525,-2.2865 0.0869,0.1482 c 0.2118,0.3549 0.6983,1.208 0.4615,1.6114 -0.0576,0.0966 -0.0882,0.156 -0.0465,0.2258 0.0324,0.055 0.0881,0.0845 0.1444,0.0515 0.0275,-0.0172 0.1328,-0.1629 0.5477,-0.6507 l -2.3715,-3.9969 c -0.6267,0.1315 -0.8048,0.153 -0.8323,0.1695 -0.0557,0.0336 -0.0569,0.0961 -0.0251,0.1505 0.0422,0.0698 0.1102,0.0722 0.2216,0.0686 0.4669,-0.0159 0.9822,0.8201 1.1939,1.1762 l 0.0857,0.1482 -3.0073,1.7833 c -0.9284,0.552 -0.9847,0.5221 -1.1316,0.2736 l -0.3085,-0.519"
           style="fill:#2057af;fill-opacity:1;fill-rule:nonzero;stroke:none"
           id="path2221"
           inkscape:connector-curvature="0" /><path
           d="m 324.0313,344.2624 c -0.9302,0.5508 -0.9847,0.5214 -1.1334,0.2735 l -0.2062,-0.3488 -0.232,0.1389 1.1904,2.0055 0.2319,-0.1377 -0.2068,-0.3488 c -0.06,-0.1004 -0.0264,-0.1414 0.044,-0.183 l 1.5637,-0.9277 2.2889,0.0244 c 0.8825,0.0104 0.9241,0.0796 0.9969,0.2044 l 0.1665,0.2785 0.2313,-0.1377 -1.1744,-1.9829 -0.2332,0.1371 0.2436,0.4113 c 0.0178,0.0312 0.0251,0.0575 -0.0104,0.0789 -0.0276,0.0165 -0.1554,0.009 -0.1818,0.0147 l -2.4278,-0.0159 c 0.9021,-1.6879 1.2093,-2.0692 1.287,-2.1145 0.0851,-0.0514 0.1279,0.007 0.1928,0.1151 l 0.2387,0.4027 0.2332,-0.1377 -0.8544,-1.4401 -0.2332,0.1371 0.1145,0.194 c 0.1016,0.1695 0.0875,0.2099 -0.0239,0.4229 l -1.3458,2.4854"
           style="fill:#2057af;fill-opacity:1;fill-rule:nonzero;stroke:none"
           id="path2223"
           inkscape:connector-curvature="0" /><path
           d="m 296.9681,345.853 c -0.8568,-0.5141 -1.8758,0.1983 -2.3948,1.0624 -0.1903,0.317 -0.3611,0.6658 -0.4363,1.0306 0.1781,0.1169 0.4406,0.317 0.5526,0.3837 0.0844,0.0502 0.131,0.005 0.164,-0.0489 0.0453,-0.0765 -10e-4,-0.1255 -0.055,-0.1794 -0.2608,-0.2509 -0.0386,-0.8427 0.1272,-1.1199 0.2969,-0.4951 0.8623,-0.8813 1.3678,-0.5777 1.1102,0.6658 -0.9271,2.8678 0.773,3.8862 0.232,0.1389 1.5392,0.6181 2.5771,-1.1114 0.2546,-0.4248 0.448,-0.9076 0.5558,-1.3893 -0.3544,-0.317 -0.497,-0.4767 -0.5815,-0.5269 -0.0422,-0.0251 -0.1193,-0.0716 -0.189,0.0441 -0.0551,0.093 0.005,0.1505 0.0624,0.2166 0.2974,0.3776 0.0722,1.1353 -0.1641,1.5288 -0.3568,0.5949 -1.0104,1.0325 -1.6071,0.6738 -1.1946,-0.7148 0.8568,-2.9082 -0.7521,-3.8727"
           style="fill:#2057af;fill-opacity:1;fill-rule:nonzero;stroke:none"
           id="path2225"
           inkscape:connector-curvature="0" /><path
           d="m 297.5758,351.7998 -0.2087,0.3464 c -0.06,0.1004 -0.1108,0.0912 -0.1817,0.0489 l -2.9291,-1.7558 c -0.9272,-0.5569 -0.9272,-0.62 -0.7791,-0.8666 l 0.2087,-0.3476 -0.2319,-0.1389 -2.2699,3.7846 c 0.7178,0.3158 0.7717,0.3372 0.8182,0.2595 0.06,-0.1004 0.0129,-0.1494 -0.0808,-0.2167 -0.1144,-0.0789 -0.0379,-0.5893 0.4902,-1.47 l 0.3336,-0.5557 c 0.0465,-0.0765 0.0814,-0.0875 0.1518,-0.0453 l 1.5385,0.9211 -0.4308,0.7197 c -0.4915,0.8176 -0.5943,0.7986 -0.7981,0.6768 l -0.2454,-0.1487 -0.1395,0.232 1.2368,0.7411 0.139,-0.2319 -0.2528,-0.1506 c -0.1193,-0.0728 -0.1781,-0.1493 0.3133,-0.9682 l 0.4303,-0.7185 0.5128,0.3073 c 1.4964,0.8978 1.4988,0.9412 1.3416,1.2038 l -0.1622,0.2705 c -0.2504,0.4168 -0.8807,1.4676 -1.4101,1.4749 -0.0679,0.001 -0.1193,-0.009 -0.1615,0.0606 -0.0319,0.0538 -0.0154,0.1065 0.0336,0.1365 0.0637,0.0385 0.1922,0.0624 0.7876,0.1995 l 2.1769,-3.6298"
           style="fill:#2057af;fill-opacity:1;fill-rule:nonzero;stroke:none"
           id="path2227"
           inkscape:connector-curvature="0" /><path
           d="m 291.9846,356.5214 -0.1671,0.2784 c -0.3703,0.6181 -0.9498,1.027 -1.582,0.6469 -0.8287,-0.4963 -0.5839,-1.3984 -0.44,-1.6389 l 0.2043,-0.3397 c 0.046,-0.0777 0.0808,-0.0881 0.1506,-0.0453 z m 3.0765,-0.004 -0.232,-0.1383 -0.2074,0.3476 c -0.0606,0.1004 -0.112,0.0893 -0.1824,0.0477 l -2.929,-1.7558 c -0.9272,-0.5545 -0.9278,-0.6181 -0.7797,-0.8654 l 0.2087,-0.3482 -0.232,-0.1383 -1.3574,2.2626 c -0.6579,1.096 -0.3403,2.0012 0.2356,2.3463 0.6114,0.366 1.2755,0.1341 1.7442,-0.4565 0.5453,1.2717 0.7742,1.7668 0.9101,2.2889 0.0789,0.3299 0.1028,0.4186 -0.0784,0.7197 l 0.232,0.1389 0.5275,-0.88 c 0.1022,-0.1695 0.1861,-0.3097 0.1757,-0.4205 -0.0343,-0.3256 -0.5202,-1.3941 -1.1677,-2.5269 l 0.287,-0.478 0.8428,0.5043 c 0.9277,0.5557 0.9277,0.6187 0.779,0.8666 l -0.2081,0.3476 0.232,0.1389"
           style="fill:#2057af;fill-opacity:1;fill-rule:nonzero;stroke:none"
           id="path2229"
           inkscape:connector-curvature="0" /><path
           d="m 285.2979,363.2111 0.2129,-0.3549 c 0.0282,-0.0459 0.0325,-0.0539 0.2546,-0.0263 l 5.1977,0.6168 c 0.1004,0.008 0.1567,0.0111 0.1885,-0.0434 0.0325,-0.0545 0.0141,-0.0863 -0.022,-0.1395 l -2.5086,-3.6978 c -0.5312,-0.8023 -0.5814,-0.9265 -0.4657,-1.1205 l 0.1487,-0.246 -0.2319,-0.1396 -1.1439,1.9082 0.2313,0.139 0.1947,-0.3244 c 0.0514,-0.0857 0.0789,-0.1304 0.1279,-0.1028 0.0355,0.022 0.2117,0.3158 0.459,0.6854 l 1.724,2.5557 -2.5466,-0.276 c -0.2588,-0.0299 -0.9975,-0.1358 -1.1872,-0.2515 -0.0912,-0.0532 -0.0637,-0.1322 0.006,-0.2473 l 0.2448,-0.4094 -0.2313,-0.1395 -0.885,1.4749"
           style="fill:#2057af;fill-opacity:1;fill-rule:nonzero;stroke:none"
           id="path2231"
           inkscape:connector-curvature="0" /><path
           d="m 287.1877,366.9565 c 0.9278,0.5558 0.9278,0.6194 0.7791,0.8654 l -0.2081,0.3477 0.232,0.1389 1.1995,-2 -0.2313,-0.1384 -0.2081,0.3464 c -0.0612,0.1004 -0.1126,0.0912 -0.183,0.049 l -2.9291,-1.7558 c -0.9272,-0.5557 -0.9272,-0.6194 -0.779,-0.8666 l 0.208,-0.3476 -0.2319,-0.139 -1.1995,2 0.2319,0.1396 0.2087,-0.3476 c 0.06,-0.1004 0.112,-0.0906 0.1818,-0.0478"
           style="fill:#2057af;fill-opacity:1;fill-rule:nonzero;stroke:none"
           id="path2233"
           inkscape:connector-curvature="0" /><path
           d="m 281.3309,370.9878 c 0.0416,-0.0692 0.0116,-0.0973 -0.1059,-0.2209 -0.1714,-0.175 -0.0435,-0.8654 0.2387,-1.3379 0.7729,-1.2894 2.1971,-1.4963 3.3556,-0.8017 1.0465,0.6273 1.634,1.8929 0.8935,3.1292 -0.2601,0.4314 -1.0288,1.2203 -1.5624,1.0269 -0.0723,-0.022 -0.1402,-0.052 -0.1959,0.0404 -0.041,0.0692 -0.0177,0.1255 0.0171,0.1469 0.0564,0.0337 0.2179,0.0979 0.7118,0.3421 0.5624,-0.3984 1.0992,-1.0208 1.456,-1.6163 0.9216,-1.5361 0.8464,-3.0508 -0.6212,-3.9315 -1.5527,-0.9308 -3.407,-0.0673 -4.3795,1.5527 -0.2686,0.4485 -0.4388,0.9553 -0.5416,1.4608 0.6573,0.3225 0.6738,0.3097 0.7338,0.2093"
           style="fill:#2057af;fill-opacity:1;fill-rule:nonzero;stroke:none"
           id="path2235"
           inkscape:connector-curvature="0" /><path
           d="m 284.0634,374.3312 -0.2086,0.3476 c -0.06,0.1004 -0.1114,0.0899 -0.1824,0.0477 l -2.9291,-1.7558 c -0.9265,-0.5557 -0.9265,-0.6187 -0.779,-0.8654 l 0.2087,-0.3476 -0.232,-0.1389 -2.2699,3.784 c 0.7185,0.3152 0.7717,0.3366 0.8189,0.2601 0.06,-0.101 0.0128,-0.1494 -0.0808,-0.2167 -0.1145,-0.0801 -0.038,-0.5893 0.4902,-1.47 l 0.3329,-0.5557 c 0.0471,-0.0777 0.082,-0.0887 0.1518,-0.0459 l 1.5386,0.9217 -0.4309,0.7185 c -0.4908,0.8188 -0.5936,0.7998 -0.7974,0.6769 l -0.246,-0.1475 -0.139,0.2319 1.2363,0.7411 0.1389,-0.2319 -0.2528,-0.1518 c -0.1193,-0.0716 -0.178,-0.1481 0.3134,-0.9669 l 0.4302,-0.7185 0.5129,0.3072 c 1.4963,0.8966 1.4988,0.9406 1.3421,1.2032 l -0.1628,0.2711 c -0.2497,0.4162 -0.8801,1.4663 -1.41,1.4749 -0.0673,10e-4 -0.1194,-0.009 -0.161,0.0606 -0.0324,0.0539 -0.0159,0.1053 0.0337,0.1353 0.063,0.0385 0.1915,0.063 0.7876,0.1995 l 2.1775,-3.6298"
           style="fill:#2057af;fill-opacity:1;fill-rule:nonzero;stroke:none"
           id="path2237"
           inkscape:connector-curvature="0" /><path
           d="m 312.4431,438.3812 c -35.018,0 -63.4056,-28.3876 -63.4056,-63.4056 0,-35.0162 28.3876,-63.4038 63.4056,-63.4038 35.0174,0 63.405,28.3876 63.405,63.4038 0,35.018 -28.3876,63.4056 -63.405,63.4056 m 0,-2.0055 c 16.4004,0 31.8191,-6.3868 43.4159,-17.9836 11.5968,-11.5968 17.9837,-27.0155 17.9837,-43.4165 0,-16.3992 -6.3869,-31.8179 -17.9837,-43.4147 -11.5968,-11.5967 -27.0155,-17.9836 -43.4159,-17.9836 -16.401,0 -31.8191,6.3869 -43.4159,17.9836 -11.5974,11.5968 -17.9842,27.0155 -17.9842,43.4147 0,16.401 6.3868,31.8197 17.9842,43.4165 11.5968,11.5968 27.0149,17.9836 43.4159,17.9836"
           style="fill:#fab217;fill-opacity:1;fill-rule:nonzero;stroke:none"
           id="path2239"
           inkscape:connector-curvature="0" /><path
           d="m 299.6443,368.844 -0.1976,0.3286 -8.0888,-1.5073 0.459,-0.7656"
           style="fill:#fab217;fill-opacity:1;fill-rule:nonzero;stroke:none"
           id="path2241"
           inkscape:connector-curvature="0" /><path
           d="m 299.1854,369.6053 -0.2663,0.4425 -8.4101,-0.967 0.5888,-0.9816"
           style="fill:#fab217;fill-opacity:1;fill-rule:nonzero;stroke:none"
           id="path2243"
           inkscape:connector-curvature="0" /><path
           d="m 302.1689,364.6591 -0.1647,0.2724 -6.6267,-3.9682 0.399,-0.6647"
           style="fill:#fab217;fill-opacity:1;fill-rule:nonzero;stroke:none"
           id="path2245"
           inkscape:connector-curvature="0" /><path
           d="m 300.9363,366.7032 -0.1707,0.2834 -7.3349,-2.7767 0.4107,-0.6836"
           style="fill:#fab217;fill-opacity:1;fill-rule:nonzero;stroke:none"
           id="path2247"
           inkscape:connector-curvature="0" /><path
           d="m 300.5164,367.3984 -0.1774,0.2938 -7.5778,-2.3666 0.4217,-0.7026"
           style="fill:#fab217;fill-opacity:1;fill-rule:nonzero;stroke:none"
           id="path2249"
           inkscape:connector-curvature="0" /><path
           d="m 301.7594,365.3378 -0.164,0.2718 -6.8617,-3.5735 0.3996,-0.6653"
           style="fill:#fab217;fill-opacity:1;fill-rule:nonzero;stroke:none"
           id="path2251"
           inkscape:connector-curvature="0" /><path
           d="m 301.3494,366.0172 -0.1665,0.276 -7.0961,-3.1788 0.4033,-0.6713"
           style="fill:#fab217;fill-opacity:1;fill-rule:nonzero;stroke:none"
           id="path2253"
           inkscape:connector-curvature="0" /><path
           d="m 298.6376,370.5135 -0.235,0.3899 -8.6843,-0.5037 0.5239,-0.8727"
           style="fill:#fab217;fill-opacity:1;fill-rule:nonzero;stroke:none"
           id="path2255"
           inkscape:connector-curvature="0" /><path
           d="m 313.0049,348.5721 -0.3923,-16.1384 1.7791,2.9975 -0.5147,14.6201"
           style="fill:#fab217;fill-opacity:1;fill-rule:nonzero;stroke:none"
           id="path2257"
           inkscape:connector-curvature="0" /><path
           d="m 294.0128,378.1825 -0.6182,1.0257 -11.5209,4.273 1.1751,-1.9584"
           style="fill:#fab217;fill-opacity:1;fill-rule:nonzero;stroke:none"
           id="path2259"
           inkscape:connector-curvature="0" /><path
           d="m 294.8854,376.7351 -0.522,0.8654 -10.9664,3.3403 1.0104,-1.6849"
           style="fill:#fab217;fill-opacity:1;fill-rule:nonzero;stroke:none"
           id="path2261"
           inkscape:connector-curvature="0" /><path
           d="m 295.6609,375.4493 -0.4474,0.7417 -10.4805,2.5215 0.8659,-1.4431"
           style="fill:#fab217;fill-opacity:1;fill-rule:nonzero;stroke:none"
           id="path2263"
           inkscape:connector-curvature="0" /><path
           d="m 293.0146,379.8373 -0.746,1.2369 -12.1629,5.355 1.391,-2.3189"
           style="fill:#fab217;fill-opacity:1;fill-rule:nonzero;stroke:none"
           id="path2265"
           inkscape:connector-curvature="0" /><path
           d="m 297.5807,372.2651 -0.2883,0.4779 -9.3183,0.5655 0.6182,-1.0312"
           style="fill:#fab217;fill-opacity:1;fill-rule:nonzero;stroke:none"
           id="path2267"
           inkscape:connector-curvature="0" /><path
           d="m 298.126,371.3624 -0.2583,0.4278 -8.9903,0.0122 0.5655,-0.9431"
           style="fill:#fab217;fill-opacity:1;fill-rule:nonzero;stroke:none"
           id="path2269"
           inkscape:connector-curvature="0" /><path
           d="m 296.9962,373.2363 -0.3255,0.5392 -9.6745,1.164 0.6829,-1.1389"
           style="fill:#fab217;fill-opacity:1;fill-rule:nonzero;stroke:none"
           id="path2271"
           inkscape:connector-curvature="0" /><path
           d="m 296.3591,374.2908 -0.372,0.6175 -10.0638,1.8195 0.7638,-1.273"
           style="fill:#fab217;fill-opacity:1;fill-rule:nonzero;stroke:none"
           id="path2273"
           inkscape:connector-curvature="0" /><path
           d="m 306.09,358.1572 -4.2963,-7.8923 0.6096,-1.0172 3.9675,8.4438"
           style="fill:#fab217;fill-opacity:1;fill-rule:nonzero;stroke:none"
           id="path2275"
           inkscape:connector-curvature="0" /><path
           d="m 308.7264,353.7924 -2.8017,-10.4621 0.9792,-1.5924 2.314,11.273"
           style="fill:#fab217;fill-opacity:1;fill-rule:nonzero;stroke:none"
           id="path2277"
           inkscape:connector-curvature="0" /><path
           d="m 307.2882,356.1713 -3.6126,-9.0436 0.7491,-1.2509 3.2234,9.6966"
           style="fill:#fab217;fill-opacity:1;fill-rule:nonzero;stroke:none"
           id="path2279"
           inkscape:connector-curvature="0" /><path
           d="m 307.9719,355.0452 -3.2253,-9.7033 0.847,-1.4149 2.7999,10.4554"
           style="fill:#fab217;fill-opacity:1;fill-rule:nonzero;stroke:none"
           id="path2281"
           inkscape:connector-curvature="0" /><path
           d="m 291.8554,381.759 -0.9186,1.5239 -12.9211,6.6316 1.6799,-2.8017"
           style="fill:#fab217;fill-opacity:1;fill-rule:nonzero;stroke:none"
           id="path2283"
           inkscape:connector-curvature="0" /><path
           d="m 306.6652,357.2031 -3.9682,-8.4443 0.6714,-1.12 3.612,9.0417"
           style="fill:#fab217;fill-opacity:1;fill-rule:nonzero;stroke:none"
           id="path2285"
           inkscape:connector-curvature="0" /><path
           d="m 312.4437,347.6223 -0.7907,1.3115 -1.1187,-13.2731 1.6169,-2.6714 0.3678,14.7603"
           style="fill:#fab217;fill-opacity:1;fill-rule:nonzero;stroke:none"
           id="path2287"
           inkscape:connector-curvature="0" /><path
           d="m 309.5741,352.3867 -2.3146,-11.2755 1.1359,-1.8586 1.7594,12.1983"
           style="fill:#fab217;fill-opacity:1;fill-rule:nonzero;stroke:none"
           id="path2289"
           inkscape:connector-curvature="0" /><path
           d="m 310.538,350.7863 -1.7608,-12.202 1.3422,-2.2063 1.1187,13.2718"
           style="fill:#fab217;fill-opacity:1;fill-rule:nonzero;stroke:none"
           id="path2291"
           inkscape:connector-curvature="0" /><path
           d="m 305.5538,359.0452 -4.6016,-7.3782 0.5588,-0.9309 4.2962,7.8905"
           style="fill:#fab217;fill-opacity:1;fill-rule:nonzero;stroke:none"
           id="path2293"
           inkscape:connector-curvature="0" /><path
           d="m 302.5801,363.9761 -0.1664,0.276 -6.393,-4.3617 0.4027,-0.6713"
           style="fill:#fab217;fill-opacity:1;fill-rule:nonzero;stroke:none"
           id="path2295"
           inkscape:connector-curvature="0" /><path
           d="m 303.4222,362.5801 -0.1768,0.2932 -5.9187,-5.1604 0.4217,-0.7038"
           style="fill:#fab217;fill-opacity:1;fill-rule:nonzero;stroke:none"
           id="path2297"
           inkscape:connector-curvature="0" /><path
           d="m 302.9969,363.2858 -0.1701,0.2827 -6.1574,-4.7589 0.4095,-0.6836"
           style="fill:#fab217;fill-opacity:1;fill-rule:nonzero;stroke:none"
           id="path2299"
           inkscape:connector-curvature="0" /><path
           d="m 303.8586,361.8574 -0.1848,0.3066 -5.6745,-5.5723 0.437,-0.7301"
           style="fill:#fab217;fill-opacity:1;fill-rule:nonzero;stroke:none"
           id="path2301"
           inkscape:connector-curvature="0" /><path
           d="m 304.3115,361.1064 -0.1965,0.3262 -5.4235,-5.9957 0.4583,-0.7638"
           style="fill:#fab217;fill-opacity:1;fill-rule:nonzero;stroke:none"
           id="path2303"
           inkscape:connector-curvature="0" /><path
           d="m 305.2797,359.5006 -0.2295,0.3806 -4.8893,-6.8947 0.5171,-0.8624"
           style="fill:#fab217;fill-opacity:1;fill-rule:nonzero;stroke:none"
           id="path2305"
           inkscape:connector-curvature="0" /><path
           d="m 304.7833,360.325 -0.2111,0.3494 -5.1622,-6.4346 0.4847,-0.8084"
           style="fill:#fab217;fill-opacity:1;fill-rule:nonzero;stroke:none"
           id="path2307"
           inkscape:connector-curvature="0" /><path
           d="m 300.0869,368.1096 -0.1861,0.3103 -7.8287,-1.9456 0.4382,-0.7301"
           style="fill:#fab217;fill-opacity:1;fill-rule:nonzero;stroke:none"
           id="path2309"
           inkscape:connector-curvature="0" /><path
           d="m 313.587,388.0749 0.2295,7.9352 -0.9468,10e-4 0.2405,-7.9364"
           style="fill:#fab217;fill-opacity:1;fill-rule:nonzero;stroke:none"
           id="path2311"
           inkscape:connector-curvature="0" /><path
           d="m 319.5974,388.0749 3.205,7.9302 -1.1089,10e-4 -2.6714,-7.9315"
           style="fill:#fab217;fill-opacity:1;fill-rule:nonzero;stroke:none"
           id="path2313"
           inkscape:connector-curvature="0" /><path
           d="m 320.7265,388.0749 3.7645,7.9284 -1.1769,0.002 -3.2045,-7.9302"
           style="fill:#fab217;fill-opacity:1;fill-rule:nonzero;stroke:none"
           id="path2315"
           inkscape:connector-curvature="0" /><path
           d="m 317.486,388.0749 2.1585,7.9315 -1.0147,6e-4 -1.6621,-7.9321"
           style="fill:#fab217;fill-opacity:1;fill-rule:nonzero;stroke:none"
           id="path2317"
           inkscape:connector-curvature="0" /><path
           d="m 314.5404,388.0749 0.7014,7.9352 h -0.9504 l -0.2302,-7.9352"
           style="fill:#fab217;fill-opacity:1;fill-rule:nonzero;stroke:none"
           id="path2319"
           inkscape:connector-curvature="0" /><path
           d="m 321.9181,388.0749 4.3562,7.9278 -1.2589,6e-4 -3.7644,-7.9284"
           style="fill:#fab217;fill-opacity:1;fill-rule:nonzero;stroke:none"
           id="path2321"
           inkscape:connector-curvature="0" /><path
           d="m 316.4829,388.0749 1.6616,7.9321 -0.9847,10e-4 -1.1763,-7.9333"
           style="fill:#fab217;fill-opacity:1;fill-rule:nonzero;stroke:none"
           id="path2323"
           inkscape:connector-curvature="0" /><path
           d="m 315.5049,388.0749 1.1763,7.9333 -0.9639,6e-4 -0.7007,-7.9339"
           style="fill:#fab217;fill-opacity:1;fill-rule:nonzero;stroke:none"
           id="path2325"
           inkscape:connector-curvature="0" /><path
           d="m 318.5221,388.0749 2.6702,7.9315 h -1.0563 l -2.1586,-7.9315"
           style="fill:#fab217;fill-opacity:1;fill-rule:nonzero;stroke:none"
           id="path2327"
           inkscape:connector-curvature="0" /><path
           d="m 341.4244,395.9941 -9.1262,-7.9187 h 1.6365 l 10.3299,7.9169"
           style="fill:#fab217;fill-opacity:1;fill-rule:nonzero;stroke:none"
           id="path2329"
           inkscape:connector-curvature="0" /><path
           d="m 329.513,388.0749 8.1304,7.9211 -2.0899,0.002 -7.2229,-7.9229"
           style="fill:#fab217;fill-opacity:1;fill-rule:nonzero;stroke:none"
           id="path2331"
           inkscape:connector-curvature="0" /><path
           d="m 338.2915,395.9954 -8.0991,-7.92 h 1.3812 l 9.1549,7.9187"
           style="fill:#fab217;fill-opacity:1;fill-rule:nonzero;stroke:none"
           id="path2333"
           inkscape:connector-curvature="0" /><path
           d="m 334.7132,388.0749 h 1.5894 l -0.2571,-0.4358 12.3453,8.3507 -3.3746,0.002"
           style="fill:#fab217;fill-opacity:1;fill-rule:nonzero;stroke:none"
           id="path2335"
           inkscape:connector-curvature="0" /><path
           d="m 327.6887,388.0749 7.2228,7.9229 -1.8434,6e-4 -6.4082,-7.9235"
           style="fill:#fab217;fill-opacity:1;fill-rule:nonzero;stroke:none"
           id="path2337"
           inkscape:connector-curvature="0" /><path
           d="m 323.1904,388.0749 4.9885,7.9266 -1.363,10e-4 -4.3562,-7.9278"
           style="fill:#fab217;fill-opacity:1;fill-rule:nonzero;stroke:none"
           id="path2339"
           inkscape:connector-curvature="0" /><path
           d="m 324.5613,388.0749 5.6672,7.9253 -1.4897,10e-4 -4.9865,-7.9266"
           style="fill:#fab217;fill-opacity:1;fill-rule:nonzero;stroke:none"
           id="path2341"
           inkscape:connector-curvature="0" /><path
           d="m 326.0503,388.0749 6.4083,7.9235 -1.6475,0.002 -5.6678,-7.9253"
           style="fill:#fab217;fill-opacity:1;fill-rule:nonzero;stroke:none"
           id="path2343"
           inkscape:connector-curvature="0" /><path
           d="m 301.541,388.0749 -5.699,7.9449 -1.6548,0.002 6.4449,-7.9468"
           style="fill:#fab217;fill-opacity:1;fill-rule:nonzero;stroke:none"
           id="path2345"
           inkscape:connector-curvature="0" /><path
           d="m 298.3494,388.0724 -7.2688,7.9505 -2.1034,0.002 8.2045,-7.9713"
           style="fill:#fab217;fill-opacity:1;fill-rule:nonzero;stroke:none"
           id="path2347"
           inkscape:connector-curvature="0" /><path
           d="m 300.022,388.0749 -6.4456,7.9468 -1.8537,6e-4 7.2668,-7.9474"
           style="fill:#fab217;fill-opacity:1;fill-rule:nonzero;stroke:none"
           id="path2349"
           inkscape:connector-curvature="0" /><path
           d="m 290.4821,384.0369 -1.1603,1.9235 -13.8374,8.1745 2.0808,-3.4682"
           style="fill:#fab217;fill-opacity:1;fill-rule:nonzero;stroke:none"
           id="path2351"
           inkscape:connector-curvature="0" /><path
           d="m 296.4822,388.073 -8.2082,7.9738 -2.3996,-0.019 9.2412,-7.9713"
           style="fill:#fab217;fill-opacity:1;fill-rule:nonzero;stroke:none"
           id="path2353"
           inkscape:connector-curvature="0" /><path
           d="m 291.9448,388.0736 -10.4291,7.9713 -3.3556,-0.0134 11.8177,-7.9701"
           style="fill:#fab217;fill-opacity:1;fill-rule:nonzero;stroke:none"
           id="path2355"
           inkscape:connector-curvature="0" /><path
           d="m 294.3695,388.0736 -9.2418,7.9713 -2.8127,-0.0153 10.4291,-7.9701"
           style="fill:#fab217;fill-opacity:1;fill-rule:nonzero;stroke:none"
           id="path2357"
           inkscape:connector-curvature="0" /><path
           d="m 288.815,386.8 -0.7693,1.2754 h 1.0637 l -11.8159,7.9689 -2.9486,-0.01 0.6371,-1.0618"
           style="fill:#fab217;fill-opacity:1;fill-rule:nonzero;stroke:none"
           id="path2359"
           inkscape:connector-curvature="0" /><path
           d="m 302.9363,388.0749 -5.0147,7.9443 -1.4958,6e-4 5.6984,-7.9449"
           style="fill:#fab217;fill-opacity:1;fill-rule:nonzero;stroke:none"
           id="path2361"
           inkscape:connector-curvature="0" /><path
           d="m 305.4406,388.0749 -3.7852,7.9419 -1.2632,0.002 4.3789,-7.9437"
           style="fill:#fab217;fill-opacity:1;fill-rule:nonzero;stroke:none"
           id="path2363"
           inkscape:connector-curvature="0" /><path
           d="m 309.7283,388.0749 -1.6745,7.9382 -1.0171,0.002 2.172,-7.9401"
           style="fill:#fab217;fill-opacity:1;fill-rule:nonzero;stroke:none"
           id="path2365"
           inkscape:connector-curvature="0" /><path
           d="m 310.713,388.0749 -1.1891,7.9382 h -0.9847 l 1.6732,-7.9382"
           style="fill:#fab217;fill-opacity:1;fill-rule:nonzero;stroke:none"
           id="path2367"
           inkscape:connector-curvature="0" /><path
           d="m 308.7179,388.0749 -2.1726,7.9401 h -1.0588 l 2.6867,-7.9401"
           style="fill:#fab217;fill-opacity:1;fill-rule:nonzero;stroke:none"
           id="path2369"
           inkscape:connector-curvature="0" /><path
           d="m 311.6794,388.0749 -0.7112,7.937 h -0.9651 l 1.1891,-7.937"
           style="fill:#fab217;fill-opacity:1;fill-rule:nonzero;stroke:none"
           id="path2371"
           inkscape:connector-curvature="0" /><path
           d="m 306.5832,388.0749 -3.2216,7.9419 h -1.1799 l 3.784,-7.9419"
           style="fill:#fab217;fill-opacity:1;fill-rule:nonzero;stroke:none"
           id="path2373"
           inkscape:connector-curvature="0" /><path
           d="m 312.6359,388.0749 -0.2411,7.9364 h -0.9505 l 0.7118,-7.9364"
           style="fill:#fab217;fill-opacity:1;fill-rule:nonzero;stroke:none"
           id="path2375"
           inkscape:connector-curvature="0" /><path
           d="m 304.2301,388.0749 -4.3795,7.9437 -1.3678,6e-4 5.0147,-7.9443"
           style="fill:#fab217;fill-opacity:1;fill-rule:nonzero;stroke:none"
           id="path2377"
           inkscape:connector-curvature="0" /><path
           d="m 307.6726,388.0749 -2.6867,7.9413 h -1.1126 l 3.2215,-7.9413"
           style="fill:#fab217;fill-opacity:1;fill-rule:nonzero;stroke:none"
           id="path2379"
           inkscape:connector-curvature="0" /><path
           d="m 317.8244,356.7441 2.9548,-10.5441 0.7478,1.2583 -3.3751,9.8421"
           style="fill:#fab217;fill-opacity:1;fill-rule:nonzero;stroke:none"
           id="path2381"
           inkscape:connector-curvature="0" /><path
           d="m 330.3478,362.3274 0.3489,0.5887 -7.1005,3.6139 -0.1083,-0.1836"
           style="fill:#fab217;fill-opacity:1;fill-rule:nonzero;stroke:none"
           id="path2383"
           inkscape:connector-curvature="0" /><path
           d="m 329.1617,360.3298 0.3526,0.5931 -6.6164,4.4229 -0.1101,-0.1849"
           style="fill:#fab217;fill-opacity:1;fill-rule:nonzero;stroke:none"
           id="path2385"
           inkscape:connector-curvature="0" /><path
           d="m 329.7572,361.3323 0.3482,0.5869 -6.8586,4.019 -0.1078,-0.183"
           style="fill:#fab217;fill-opacity:1;fill-rule:nonzero;stroke:none"
           id="path2387"
           inkscape:connector-curvature="0" /><path
           d="m 330.9377,363.3237 0.3538,0.5955 -7.3452,3.2069 -0.1102,-0.1879"
           style="fill:#fab217;fill-opacity:1;fill-rule:nonzero;stroke:none"
           id="path2389"
           inkscape:connector-curvature="0" /><path
           d="m 324.5032,352.4773 0.4896,0.8256 -4.7767,7.4976 -0.1781,-0.3036"
           style="fill:#fab217;fill-opacity:1;fill-rule:nonzero;stroke:none"
           id="path2391"
           inkscape:connector-curvature="0" /><path
           d="m 332.7609,366.3972 0.385,0.6493 -8.1054,1.9327 -0.1255,-0.213"
           style="fill:#fab217;fill-opacity:1;fill-rule:nonzero;stroke:none"
           id="path2393"
           inkscape:connector-curvature="0" /><path
           d="m 332.1403,365.3519 0.3709,0.6248 -7.8452,2.3691 -0.1181,-0.2007"
           style="fill:#fab217;fill-opacity:1;fill-rule:nonzero;stroke:none"
           id="path2395"
           inkscape:connector-curvature="0" /><path
           d="m 327.9469,358.2809 0.3678,0.6205 -6.1273,5.2412 -0.1181,-0.1995"
           style="fill:#fab217;fill-opacity:1;fill-rule:nonzero;stroke:none"
           id="path2397"
           inkscape:connector-curvature="0" /><path
           d="m 328.5601,359.3157 0.3593,0.6041 -6.3734,4.8299 -0.1138,-0.1916"
           style="fill:#fab217;fill-opacity:1;fill-rule:nonzero;stroke:none"
           id="path2399"
           inkscape:connector-curvature="0" /><path
           d="m 325.9805,354.9681 0.4248,0.7142 -5.3501,6.5404 -0.1457,-0.2466"
           style="fill:#fab217;fill-opacity:1;fill-rule:nonzero;stroke:none"
           id="path2401"
           inkscape:connector-curvature="0" /><path
           d="m 325.2639,353.7588 0.4529,0.7644 -5.0692,7.0062 -0.1604,-0.2712"
           style="fill:#fab217;fill-opacity:1;fill-rule:nonzero;stroke:none"
           id="path2403"
           inkscape:connector-curvature="0" /><path
           d="m 326.6623,356.1162 0.4009,0.6763 -5.617,6.0924 -0.134,-0.227"
           style="fill:#fab217;fill-opacity:1;fill-rule:nonzero;stroke:none"
           id="path2405"
           inkscape:connector-curvature="0" /><path
           d="m 327.3159,357.2178 0.3819,0.6438 -5.8752,5.6617 -0.1248,-0.2118"
           style="fill:#fab217;fill-opacity:1;fill-rule:nonzero;stroke:none"
           id="path2407"
           inkscape:connector-curvature="0" /><path
           d="m 333.3992,367.4725 0.4046,0.6823 -8.3771,1.4787 -0.1346,-0.2283"
           style="fill:#fab217;fill-opacity:1;fill-rule:nonzero;stroke:none"
           id="path2409"
           inkscape:connector-curvature="0" /><path
           d="m 331.5357,364.3305 0.3598,0.6065 -7.5925,2.7925 -0.1132,-0.1921"
           style="fill:#fab217;fill-opacity:1;fill-rule:nonzero;stroke:none"
           id="path2411"
           inkscape:connector-curvature="0" /><path
           d="m 342.7897,383.2688 1.2008,2.0533 -12.6292,-5.5968 -0.5355,-0.9326"
           style="fill:#fab217;fill-opacity:1;fill-rule:nonzero;stroke:none"
           id="path2413"
           inkscape:connector-curvature="0" /><path
           d="m 340.1422,378.7927 0.8526,1.4767 -11.3863,-3.5068 -0.3531,-0.6297"
           style="fill:#fab217;fill-opacity:1;fill-rule:nonzero;stroke:none"
           id="path2415"
           inkscape:connector-curvature="0" /><path
           d="m 341.3791,380.8845 1.003,1.7258 -11.9603,-4.4743 -0.4326,-0.7589"
           style="fill:#fab217;fill-opacity:1;fill-rule:nonzero;stroke:none"
           id="path2417"
           inkscape:connector-curvature="0" /><path
           d="m 344.4275,386.0344 1.4632,2.4915 -13.4199,-6.9242 -0.675,-1.1652"
           style="fill:#fab217;fill-opacity:1;fill-rule:nonzero;stroke:none"
           id="path2419"
           inkscape:connector-curvature="0" /><path
           d="m 349.2121,395.9892 -13.7425,-9.3115 -1.1438,-1.9535 14.382,8.5337 1.6089,2.7301"
           style="fill:#fab217;fill-opacity:1;fill-rule:nonzero;stroke:none"
           id="path2421"
           inkscape:connector-curvature="0" /><path
           d="m 333.8099,383.8661 -0.8684,-1.4884 13.4229,6.9248 1.8232,3.0955"
           style="fill:#fab217;fill-opacity:1;fill-rule:nonzero;stroke:none"
           id="path2423"
           inkscape:connector-curvature="0" /><path
           d="m 336.2682,372.3079 0.5441,0.9168 -9.62,-0.5979 -0.2044,-0.3452"
           style="fill:#fab217;fill-opacity:1;fill-rule:nonzero;stroke:none"
           id="path2425"
           inkscape:connector-curvature="0" /><path
           d="m 335.4886,370.994 0.4975,0.839 -9.2785,-0.0276 -0.1799,-0.3047"
           style="fill:#fab217;fill-opacity:1;fill-rule:nonzero;stroke:none"
           id="path2427"
           inkscape:connector-curvature="0" /><path
           d="m 326.256,371.0411 -0.1616,-0.2748 8.6622,-1.0068 0.4596,0.7754"
           style="fill:#fab217;fill-opacity:1;fill-rule:nonzero;stroke:none"
           id="path2429"
           inkscape:connector-curvature="0" /><path
           d="m 334.0626,368.5918 0.429,0.7216 -8.6598,1.0055 -0.1469,-0.2479"
           style="fill:#fab217;fill-opacity:1;fill-rule:nonzero;stroke:none"
           id="path2431"
           inkscape:connector-curvature="0" /><path
           d="m 337.1049,373.7186 0.601,1.0146 -9.9891,-1.2166 -0.2332,-0.396"
           style="fill:#fab217;fill-opacity:1;fill-rule:nonzero;stroke:none"
           id="path2433"
           inkscape:connector-curvature="0" /><path
           d="m 338.0118,375.2479 0.6745,1.1353 -10.3973,-1.8953 -0.2693,-0.4578"
           style="fill:#fab217;fill-opacity:1;fill-rule:nonzero;stroke:none"
           id="path2435"
           inkscape:connector-curvature="0" /><path
           d="m 339.0063,376.9236 0.7657,1.2907 -10.8789,-2.6567 -0.2914,-0.5306"
           style="fill:#fab217;fill-opacity:1;fill-rule:nonzero;stroke:none"
           id="path2437"
           inkscape:connector-curvature="0" /><path
           d="m 315.4003,352.6346 1.268,-13.3649 1.1977,2.0196 -1.9088,12.2883"
           style="fill:#fab217;fill-opacity:1;fill-rule:nonzero;stroke:none"
           id="path2439"
           inkscape:connector-curvature="0" /><path
           d="m 319.0374,358.8011 3.7699,-9.1837 0.5906,0.9957 -4.1304,8.5778"
           style="fill:#fab217;fill-opacity:1;fill-rule:nonzero;stroke:none"
           id="path2441"
           inkscape:connector-curvature="0" /><path
           d="m 319.5564,359.6817 4.1316,-8.579 0.5349,0.9015 -4.4645,8.0196"
           style="fill:#fab217;fill-opacity:1;fill-rule:nonzero;stroke:none"
           id="path2443"
           inkscape:connector-curvature="0" /><path
           d="m 316.3232,354.1994 1.9094,-12.2932 1.0141,1.7105 -2.4645,11.3606"
           style="fill:#fab217;fill-opacity:1;fill-rule:nonzero;stroke:none"
           id="path2445"
           inkscape:connector-curvature="0" /><path
           d="m 314.314,350.7918 0.5141,-14.625 1.4425,2.4321 -1.2681,13.3606"
           style="fill:#fab217;fill-opacity:1;fill-rule:nonzero;stroke:none"
           id="path2447"
           inkscape:connector-curvature="0" /><path
           d="m 318.4695,357.8384 3.3752,-9.8434 0.6603,1.1114 -3.7693,9.1818"
           style="fill:#fab217;fill-opacity:1;fill-rule:nonzero;stroke:none"
           id="path2449"
           inkscape:connector-curvature="0" /><path
           d="m 317.1212,355.5538 2.4658,-11.363 0.8739,1.4737 -2.9541,10.5411"
           style="fill:#fab217;fill-opacity:1;fill-rule:nonzero;stroke:none"
           id="path2451"
           inkscape:connector-curvature="0" /></g></g></g></svg>